<?xml version="1.0" encoding="UTF-8" standalone="no"?><!DOCTYPE svg PUBLIC "-//W3C//DTD SVG 1.1//EN" "http://www.w3.org/Graphics/SVG/1.1/DTD/svg11.dtd"><svg width="100%" height="100%" viewBox="0 0 512 512" version="1.1" xmlns="http://www.w3.org/2000/svg" xmlns:xlink="http://www.w3.org/1999/xlink" xml:space="preserve" xmlns:serif="http://www.serif.com/" style="fill-rule:evenodd;clip-rule:evenodd;stroke-linejoin:round;stroke-miterlimit:2;"><path d="M262.273,142.141c-0.978,-0.7 -1.951,-1.411 -2.913,-2.134c-5.395,-4.064 -9.574,-10.227 -10.387,-16.987c-1.036,-8.617 -0.093,-16.353 5.379,-23.309c3.306,-4.199 9.263,-9.063 14.693,-9.492c6.202,-0.49 11.27,-0.559 16.197,3.494c7.723,6.35 7.983,12.23 9.111,21.283c5.219,-5.174 24.07,-5.834 24.457,-6.236c-0.822,-0.846 -3.61,-3.079 -2.335,-4.495c2.08,-2.311 6.957,-1.881 9.775,-2.02c6.567,-0.323 11.75,1.556 17.033,5.373c1.204,1.236 1.997,2.269 3.659,2.783c13.228,-0.715 38.395,8.816 47.796,18.181c2.007,-7.315 8.774,-16.588 15.485,-20.318c4.772,-2.469 12.202,-4.068 17.469,-2.528c13.62,3.983 18.028,17.905 14.445,30.678c-2.787,9.935 -11.909,21.22 -21.985,24.408c12.763,23.155 17.62,52.59 16.768,78.963c-0.12,3.717 -1.235,7.347 -1.682,10.992c3.125,4.96 6.285,10.008 8.937,15.25c9.385,18.918 14.598,39.63 15.28,60.738c-0.155,0.522 -0.147,0.25 0.01,0.817c0.623,-0.292 0.51,-0.395 0.92,-1.137c3.673,-5.103 6.015,-6.428 12.278,-6.14c12.97,9.702 2.21,34.78 -6.035,44.697c-7.288,8.768 -18.208,17.203 -28.983,20.818c0.193,1.175 0.423,2.237 0.403,3.425c5.882,0.432 39.872,1.34 42.68,5.037c0.455,0.6 0.427,0.725 0.292,1.413c-5.752,6.112 -72.11,8.665 -84.31,9.035c-29.78,0.875 -59.57,1.312 -89.36,1.315c-17.792,0.022 -36.51,-0.34 -54.19,0.002c-9.323,-0.432 -20.952,-0.27 -30.322,-0.292l-47.451,-0.418c-13.161,-0.287 -26.319,-0.657 -39.475,-1.107c-10.516,-0.408 -23.095,-1.05 -33.613,-0.948c-10.035,-0.79 -69.451,-2.25 -73.202,-8.357c-0.001,-0.568 -0.036,-0.718 0.36,-1.168c3.935,-4.477 41.292,-5.672 48.411,-5.897c3.123,-0.098 6.259,0.075 9.376,-0.1l0.304,-0.02c-1.693,-0.95 -6.473,-2.173 -8.601,-2.908c-21.179,-7.325 -34.723,-26.372 -33.236,-48.865c-1.585,-1.785 -3.783,-3.19 -5.464,-4.922c-25.316,-26.083 -25.999,-71.793 -0.581,-98.07c5.775,-5.97 11.571,-10.168 20.113,-10.109c0.908,0.006 1.308,0.22 1.955,0.855c1.2,3.219 -2.739,11.766 -3.823,14.957c-6.097,17.947 -4.181,35.962 7.853,51.015c1.864,2.334 4.356,4.327 6.309,6.769c2.313,-0.479 4.979,-1.517 7.284,-2.135c8.855,-2.38 15.113,-2.782 24.182,-0.802c3.359,0.733 4.498,0.28 7.833,2.225c-10.269,-38.295 -44.916,-52.917 -45.186,-97.565c-0.118,-19.395 7.74,-39.592 21.504,-53.31c6.143,-6.123 14.24,-12.25 22.345,-15.395c3.866,-1.499 8.045,-2.459 12.093,-3.323c3.177,-0.677 6.379,-1.433 9.622,-1.693c4.122,-0.331 8.419,-0.18 12.558,-0.17c3.331,0.008 6.441,0.657 9.697,1.277c2.442,0.465 4.971,0.851 7.367,1.497c7.933,2.136 16.267,6.641 22.046,12.516c10.638,10.814 13.728,25.356 13.562,40.044c33.937,6.928 19.153,45.711 -11.431,48.173c5.33,2.354 9.012,3.109 14.768,4.212c2.063,0.396 6.122,-0.111 7.142,0.735c-0.016,0.383 0.06,0.605 -0.405,0.89c-3.297,2.024 -3.825,2.255 -7.338,1.91c1.123,2.655 2.63,8.815 -0.265,10.862c-0.371,-0.267 -0.358,-0.196 -0.563,-0.523c-4.01,-6.396 -10.394,-11.201 -16.027,-16.096c0.442,2.389 1.057,4.919 1.379,7.23c1.264,9.057 -2.539,18.077 -11.325,21.619c-6.07,2.447 -10.666,1.81 -16.821,0.893c1.28,3.09 2.672,5.672 3.337,8.962l25.874,-0.025c2.221,0 9.912,0.155 11.593,-0.12c2.83,0.423 8.03,-0.015 11.01,-0.037c5.629,-0.043 11.302,-0.103 16.933,-0.096c2.064,0.003 5.898,-0.184 7.702,0.391c1.121,-0.188 1.699,-0.255 2.834,-0.296c1.52,0.155 12.992,0.215 14.191,0c1.012,0.05 2.022,0.113 3.03,0.188c4.865,-0.05 9.837,-0.16 14.687,0.053c-0.432,-1.166 -6.41,-3.75 -7.942,-4.93c-12.771,-9.833 -23.848,-22.959 -25.157,-39.634c-0.887,-11.299 2.505,-20.286 7.786,-30.02c1.073,-1.993 2.766,-3.596 3.591,-5.719c0.971,-2.97 0.643,-7.891 1.215,-10.875c1.905,-9.94 9.082,-27.583 15.495,-35.234Zm-134.285,243.584c9.496,-0.02 19.022,-0.505 28.529,-0.312c3.508,0.07 7.032,0.165 10.539,0.197c-0.559,-0.605 -1.108,-1.222 -1.684,-1.815c-2.61,-2.68 -4.11,-16.922 -4.47,-21.147c-5.22,7.677 -14.536,15.187 -23.055,19.08c-2.017,0.92 -8.579,3.157 -9.859,3.997Z" style="fill:#4e1f00;fill-rule:nonzero;"/><path d="M127.988,385.725c9.496,-0.02 19.022,-0.505 28.529,-0.313c3.508,0.07 7.032,0.165 10.539,0.198c1.03,0.115 1.997,0.72 2.947,1.2c-0.414,3.75 -0.577,7.63 1.862,10.885c1.311,1.75 3.876,2.845 6.017,2.975c5.013,0.303 10.157,0.532 15.182,0.64c8.929,0.163 17.859,0.248 26.789,0.252c8.15,0.05 16.366,0.538 24.522,0.773c4.961,0.142 9.993,-0.015 14.923,0.175c16.327,0.635 32.607,1.1 48.952,1.022c6.545,-0.032 13.118,0.38 19.648,-0.092c2.797,-0.185 6.747,-1.163 9.607,-1.728l13.363,-2.51l17.592,-3.295c2.958,-0.535 5.92,-0.845 8.835,-1.555c0.625,2.395 1.4,4.448 3.623,5.818c5.732,3.532 41.525,1.998 48.31,0.227c3.055,-0.797 5.845,-2.044 7.447,-4.945c1.058,-1.914 1.293,-4.06 1.373,-6.207c5.882,0.433 39.872,1.34 42.68,5.038c0.455,0.599 0.427,0.724 0.292,1.412c-5.752,6.113 -72.11,8.665 -84.31,9.035c-29.78,0.875 -59.57,1.313 -89.36,1.315c-17.792,0.022 -36.51,-0.34 -54.19,0.002c-9.323,-0.432 -20.952,-0.27 -30.322,-0.292l-47.451,-0.418c-13.161,-0.287 -26.319,-0.657 -39.475,-1.107c-10.516,-0.408 -23.095,-1.05 -33.613,-0.947c-10.035,-0.791 -69.451,-2.25 -73.202,-8.358c-0.001,-0.567 -0.036,-0.718 0.36,-1.168c3.935,-4.477 41.292,-5.672 48.411,-5.897c3.123,-0.098 6.259,0.075 9.376,-0.1l0.304,-0.02c1.48,-0.44 10.134,0.845 12.303,0.897c2.648,0.065 5.971,0.286 8.7,0.111c3.537,-0.228 7.2,-0.81 10.684,-1.393c2.493,-0.418 6.432,-1.715 8.753,-1.63Z" style="fill:#c8a06d;fill-rule:nonzero;"/><path d="M235.377,268.313c1.52,0.154 12.992,0.214 14.191,-0c1.012,0.05 2.022,0.112 3.029,0.187c1.701,1.207 2.43,0.45 4.538,0.788c-3.767,0.757 -13.623,-0.188 -17.754,-0.198l0.971,0.215c-1.731,0.072 -3.744,-0.17 -5.489,-0.33l0.134,0.035c-1.021,0.03 -1.447,-0.143 -2.454,-0.403c1.121,-0.187 1.699,-0.255 2.834,-0.295Z" style="fill:#381100;fill-rule:nonzero;"/><path d="M252.598,268.5c4.864,-0.05 9.837,-0.16 14.687,0.053c-4.358,0.635 -5.658,0.93 -10.15,0.735c-2.108,-0.338 -2.838,0.419 -4.538,-0.788Z" style="fill:#310b00;fill-rule:nonzero;"/><path d="M323.48,106.868c9.662,0.577 13.847,1.934 20.882,8.821c15.77,1.27 29.04,4.568 42.15,13.955c3.423,2.451 7.591,5.565 10.143,8.925c2.28,-10.17 6.913,-19.536 15.825,-25.379c7.615,-4.992 18.228,-3.752 23.008,4.441c9.625,16.498 -8.415,41.099 -26.248,40.629l-0.28,0.233c0.183,0.776 0.445,0.95 0.99,1.53c2.178,0.526 3.923,3.45 5.045,5.275c11.752,19.104 19.36,61.4 14.017,82.971c-1.057,4.271 -3.024,7.956 -5.37,11.646c2.57,-1.905 4.203,-2.885 6.76,-5.028l0.12,0.243c1.201,2.372 3.106,5.185 4.49,7.547c2.111,3.611 4.028,7.33 5.748,11.14c12.77,28.025 20.33,69.388 2.075,96.798c-3.512,5.275 -7.145,8.355 -11.94,12.31c0.89,4.12 1.265,7.032 1.06,11.235c-3.625,1.605 -13.045,2.612 -17.17,2.882c0.925,-0.345 0.818,-0.702 1.37,-1.027c6.158,-3.63 9.48,-5.383 8.783,-13.103c-0.995,-0.502 -1.19,-0.635 -2.078,-1.322l-0.03,-0.473c-1.77,-2.322 -7.77,-4.605 -10.438,-5.56c-2.77,-0.532 -4.562,-0.785 -7.347,-1.072l-7.77,0.025c-0.285,-0.377 -0.573,-0.757 -0.855,-1.137c-5.008,-6.743 -6.58,-13.135 -5.243,-21.115c1.645,-9.82 6.985,-15.465 15.315,-20.046c1.708,-0.94 4.193,-3.315 5.988,-4.527c2.852,-1.928 6.392,-3.07 9.807,-2.473c6.178,0.651 9.763,2.263 14.078,6.786c-2.01,-4.21 -4.705,-8.338 -9.23,-10.288c-1.933,-0.832 -3.963,-1.945 -6.11,-1.592c-0.423,0.07 -0.303,0.055 -0.7,-0.156c2.597,-5.902 4.03,-9.304 4.692,-15.947c-0.987,0.452 -2.785,3.908 -3.517,5.132c-2.858,4.883 -6.395,9.333 -10.505,13.218c-7.995,7.46 -16.618,13.233 -27.095,16.3c-3.603,1.055 -7.36,1.385 -10.858,2.748c-4.982,2.382 -8.237,10.222 -14.71,9.107c-1.787,-0.308 -2.372,-3.5 -2.415,-5.015c-0.097,-5.415 2.69,-8.678 5.638,-12.91c-5.335,4.37 -8.378,5.27 -10.575,12.195c-0.053,2.97 0.172,4.028 0.93,6.928c-1.483,0.02 -2.92,-0.045 -4.403,-0.1c-3.63,-2.955 -3.805,-3.795 -3.752,-8.468c-0.013,-6.895 3.985,-11.335 7.822,-16.537c-5.94,4.715 -9.602,6.78 -11.845,14.235c-1.697,-0.088 -3.16,-1.688 -4.605,-2.65c0.683,-10.435 10.653,-18.995 19.643,-22.555c14.25,-5.643 27.158,-15.223 26.368,-32.388c-2.73,6.553 -6.048,12.077 -11.053,17.132c-0.757,-1.045 -0.9,-2.222 -1.305,-3.474c-1.335,-4.138 -3.122,-7.565 -6.597,-10.333c-9.543,-7.592 -19.933,-9.365 -31.75,-8.96c-3.921,0.135 -7.296,0.125 -11.173,0.938c-2.245,0.487 -4.465,1.084 -6.652,1.787c-1.641,0.533 -3.745,1.625 -5.388,1.685c-0.058,-0.41 -0.118,-0.817 -0.18,-1.227c-2.743,-17.961 -14.935,-10.483 -27.533,-12.843c-4.272,-0.8 -13.594,-6.41 -17.175,-9.087c-11.304,-8.46 -20.897,-19.404 -22.788,-33.897c-1.738,-13.319 3.376,-21.213 10.931,-31.273c0.425,-0.892 0.763,-1.589 1.102,-2.514l0.828,3.107c1.398,4.609 3.24,8.707 6.82,12.022c6.86,6.352 11.712,6.301 20.245,6.139c2.982,9.298 10.415,14.484 19.927,15.804c-7.632,13.674 -24.14,8.276 -24.672,-6.271c-0.073,-1.934 3.077,-1.605 4.087,-2.351c-0.49,-1.457 -1.975,-1.756 -3.352,-1.613c-7.203,0.747 -9.76,4.208 -9.34,10.872c1.437,-2.038 2.917,-3.214 4.785,-4.847c1.005,3.843 2.427,8.029 5.215,10.946c2.225,2.332 5.607,4.548 8.895,4.664c1.972,7.348 4.877,14.131 11.835,17.924c2.965,1.618 5.21,2.438 8.61,2.505c6.302,10.94 22.645,13.318 32.085,4.965c10.35,-9.152 11.477,-22.756 12.545,-35.605c2.525,0.133 4.302,0.256 6.797,0.682l0.155,-0.327c-2.027,-8.046 -16.762,-9.812 -17.51,-5.734c1.19,1.169 3.97,2.375 5.523,3.075c-7.23,10.565 -19.388,14.365 -31.935,9.91c-4,-1.42 -6.555,-5.119 -8.065,-9.014c11.165,-0.299 21.702,-9.715 22.285,-21.072c1.465,2.232 3.075,3.787 5.217,5.399c6.24,4.628 14.073,6.568 21.75,5.388c10.103,-1.491 16.995,-5.331 23.088,-13.516c7.84,-0.12 9.167,-0.754 16.485,3.131c-3.338,-4.825 -7.503,-7.143 -13.385,-7.369c3.282,-9.533 4.34,-17.753 0.63,-27.385c-10.33,-26.821 -45.888,-27.076 -56.893,-0.602c-4.015,9.661 -3.935,18.609 -0.052,28.304c-0.363,-0.392 -0.73,-0.778 -1.105,-1.158c-5.558,-5.614 -14.073,-6.94 -21.58,-7.003c0.975,-4.15 1.435,-6.817 1.55,-11.036c0.37,-13.846 -7.278,-29.598 -22.993,-29.393c-8.36,0.11 -13.547,2.983 -19.38,8.822c-2.672,3.139 -3.15,4.085 -4.87,7.753c0.838,-3.808 1.465,-5.791 3.003,-9.371c9.647,-19.747 21.147,-33.947 42.682,-41.757c8.293,-3.008 22.2,-4.59 30.343,-0.89c-2.113,-4.501 -4.77,-6.064 -8.35,-9.419Z" style="fill:#fd8a02;fill-rule:nonzero;"/><path d="M409.95,160.023c2.178,0.526 3.923,3.45 5.045,5.275c11.752,19.104 19.36,61.4 14.017,82.971c-1.057,4.271 -3.024,7.956 -5.37,11.646c2.57,-1.905 4.203,-2.885 6.76,-5.028l0.12,0.243c1.201,2.372 3.106,5.185 4.49,7.547c2.111,3.611 4.028,7.33 5.748,11.14c12.77,28.025 20.33,69.388 2.075,96.798c-3.512,5.275 -7.145,8.355 -11.94,12.31c0.89,4.12 1.265,7.032 1.06,11.235c-3.625,1.605 -13.045,2.612 -17.17,2.882c0.925,-0.345 0.818,-0.702 1.37,-1.027c6.158,-3.63 9.48,-5.383 8.783,-13.103c-0.995,-0.502 -1.19,-0.635 -2.078,-1.322l-0.03,-0.473c-1.77,-2.322 -7.77,-4.605 -10.438,-5.56c15.335,-4.982 24.683,-18.667 29.05,-33.66c1.875,-6.44 1.665,-11.447 1.68,-17.984c0.055,-21.245 -6.192,-41.153 -19.075,-58.111c-1.435,-1.887 -3.962,-4.139 -5.007,-6.195c0.1,-0.99 0.282,-2.042 0.522,-2.995c3.255,-12.728 3.893,-25.102 2.758,-38.165c-0.95,-10.922 -1.63,-21.023 -4.22,-31.722c-1.24,-4.978 -2.69,-9.902 -4.345,-14.758c-0.817,-2.398 -3.615,-9.727 -3.805,-11.944Z" style="fill:#d56b01;fill-rule:nonzero;"/><path d="M425.717,289.59c0.406,5.61 0.031,8.935 -0.7,14.425c-0.987,0.452 -2.784,3.907 -3.517,5.132c-2.858,4.883 -6.395,9.333 -10.505,13.218c-7.995,7.46 -16.618,13.232 -27.095,16.3c-3.602,1.055 -7.36,1.385 -10.857,2.747c-4.983,2.383 -8.238,10.223 -14.71,9.108c-1.788,-0.308 -2.373,-3.5 -2.415,-5.015c1.065,0.052 2.442,0.465 3.507,0.732c6.283,-2.557 7.785,-7.972 13.813,-11.05c2.805,-1.43 6.22,-1.39 9.342,-1.865c2.973,-0.427 5.85,-1.357 8.51,-2.752c4.003,-2.075 9.078,-5.453 12.365,-8.35c7.703,-6.788 19.155,-22.768 22.263,-32.63Z" style="fill:#d56b01;fill-rule:nonzero;"/><path d="M397.275,374.51c-0.285,-0.377 -0.573,-0.757 -0.855,-1.137c-5.007,-6.743 -6.58,-13.135 -5.243,-21.115c1.645,-9.82 6.986,-15.465 15.315,-20.046c1.708,-0.94 4.193,-3.315 5.988,-4.527c2.852,-1.928 6.392,-3.07 9.808,-2.473c-1.271,0.046 -1.486,-0.032 -2.478,0.748c-6.978,5.475 -15.655,13.132 -20.555,20.495c-1.69,2.54 -2.913,7.572 -3.305,10.538c-0.952,7.192 1.195,11.112 4.265,17.209c1.588,-0.002 3.303,-0.097 4.83,0.283l-7.77,0.025Z" style="fill:#d56b01;fill-rule:nonzero;"/><path d="M343.755,343.15c1.435,1.15 3.225,2.105 5.115,1.87c0.858,-0.105 1.202,-0.315 2.11,-0.23c-0.053,2.97 0.172,4.027 0.93,6.927c-1.483,0.02 -2.92,-0.045 -4.403,-0.1c-3.63,-2.954 -3.805,-3.795 -3.752,-8.467Z" style="fill:#d56b01;fill-rule:nonzero;"/><path d="M258.805,158.934c-0.108,1.364 -0.44,2.26 -0.865,3.54l0.165,0.174c0.757,-0.686 1.652,-2.005 2.567,-2.096c-2.672,3.139 -3.15,4.085 -4.87,7.753c0.838,-3.808 1.465,-5.791 3.003,-9.371Z" style="fill:#d56b01;fill-rule:nonzero;"/><path d="M250.475,193.703c0.425,-0.892 0.763,-1.589 1.102,-2.514l0.828,3.107c-0.625,-0.428 -1.18,-0.455 -1.93,-0.593Z" style="fill:#e7a409;fill-rule:nonzero;"/><path d="M424.092,117.375c1.193,0.004 2.766,0.076 3.901,0.48c8.337,3.405 7.447,13.979 4.464,20.81c-1.25,2.819 -3.172,5.286 -5.599,7.186c-4.18,4.032 -14.016,10.527 -19.058,4.537c-0.882,-1.349 -1.415,-3.348 -1.563,-5.003c-0.902,-10.233 2.998,-22.586 13.023,-27.068c1.432,-0.64 3.262,-0.781 4.832,-0.942Z" style="fill:#9b4b0e;fill-rule:nonzero;"/><path d="M424.092,117.375c1.193,0.004 2.766,0.076 3.901,0.48c8.337,3.405 7.447,13.979 4.464,20.81c-1.25,2.819 -3.172,5.286 -5.599,7.186c-0.298,-1.573 0.617,-5.264 0.724,-7.332c0.383,-7.363 -4.644,-11.245 -11.787,-11.364c1.73,-3.859 4.972,-6.4 8.512,-8.475l-0.215,-1.305Z" style="fill:#ac5a16;fill-rule:nonzero;"/><path d="M424.092,117.375c1.193,0.004 2.766,0.076 3.901,0.48c-1.046,0.61 -2.44,0.661 -3.685,0.825l-0.216,-1.305Z" style="fill:#6e3609;fill-rule:nonzero;"/><path d="M407.8,150.388c-0.882,-1.349 -1.415,-3.348 -1.563,-5.003c-0.902,-10.233 2.998,-22.586 13.023,-27.068c1.432,-0.64 3.262,-0.781 4.832,-0.942l0.215,1.305c-3.54,2.075 -6.782,4.616 -8.512,8.475c-0.82,1.787 -0.965,3.975 -1.158,5.92c-0.69,6.972 -0.529,12.909 -6.837,17.313Z" style="fill:#4e1f00;fill-rule:nonzero;"/><path d="M350.745,135.587c5.058,-0.498 10.89,-0.058 15.517,2.299c2.24,1.142 8.368,5.372 6.81,8.333c-0.517,-0.017 -6.954,-3.5 -8.51,-4.079c-6.755,-2.431 -13.575,-2.709 -20.337,-0.417c-1.385,0.471 -2.915,0.842 -4.365,1.034l-0.39,0.048c0.285,-0.408 0.575,-0.811 0.875,-1.207c2.88,-3.818 5.702,-5.361 10.4,-6.011Z" style="fill:#4e1f00;fill-rule:nonzero;"/><path d="M291.33,132.359c1.37,0.017 2.845,-0.006 4.16,0.382c2.645,0.781 8.623,3.047 7.5,6.6c-0.858,0.017 -2.887,-0.908 -3.853,-1.18c-4.212,-1.193 -6.8,-1.256 -10.945,-0.406c-4.04,0.786 -7.365,2.235 -10.832,4.427c1.808,-6.992 7.35,-9.539 13.97,-9.823Z" style="fill:#4e1f00;fill-rule:nonzero;"/><path d="M89.215,244.747c-7.465,-8.381 -14.241,-24.411 -16.118,-35.341c-6.34,-36.907 19.152,-74.231 57.064,-78.719c14.626,-1.731 32.417,0.518 44.648,9.659c-1.672,1.077 -7.021,3.725 -7.002,5.955c1.1,0.32 9.855,-6.285 16.586,3.567c6.638,9.717 8.999,22.129 7.465,33.572c15.501,2.572 25.214,12.504 13.845,27.65c-6.85,9.126 -20.864,11.844 -31.496,11.102c-3.048,-0.213 -6.547,-0.047 -9.62,-0.556c-15.327,-2.898 -30.341,-7.62 -43.812,-15.608c-4.598,-2.726 -8.654,-6.261 -12.703,-9.622c1.223,-0.189 2.292,-0.337 3.533,-0.398c1.286,-0.063 3.108,0.23 4.263,-0.03l-0.017,-0.562c-1.413,-2.574 -6.922,-1.846 -9.234,-1.024c-3.657,1.299 -6.003,4.149 -7.665,7.544c2.801,-2.7 4.44,-3.567 8.094,-4.835c10.235,19.138 23.466,39.572 43.815,49.458c4.852,2.05 12.456,4.584 17.587,2.403c8.926,-3.793 7.85,-13.813 4.763,-21.195l3.607,0.471c1.328,4.138 2.25,7.157 2.239,11.514c-0.025,10.093 -7.086,16.318 -17.056,15.921c-13.956,-0.555 -26.645,-6.44 -38.778,-12.857c-5.172,-2.735 -9.986,-5.243 -14.758,-8.599c-4.314,-3.064 -8.335,-6.52 -12.01,-10.326l-0.509,0.721c1.552,2.809 2.931,4.598 4.949,7.11c2.442,2.511 4.832,4.572 7.387,6.899c4.309,3.923 10.896,11.182 13.62,16.274c12.341,18.457 19.422,35.582 20.212,57.945c0.047,1.35 0.102,6.742 0.559,7.67c-0.826,5.947 -2.231,10.55 -4.613,16.007c2.835,-0.172 6.426,0.5 9.418,0.545c3.487,0.053 6.157,-0.51 9.592,-0.942l0.298,2.087c1.195,5.65 1.502,10.633 2.537,15.728c-3.439,5.417 -7.102,9.185 -11.739,13.542l-1.701,1.365c-25.999,20.833 -78.983,20.015 -92.551,-15.365c-0.621,-1.497 -1.019,-3.182 -1.343,-4.75c-3.829,-18.545 4.254,-38.52 21.965,-46.587c4.23,-1.925 7.605,-2.685 12.104,-3.663c3.478,-0.705 6.733,-0.302 10.255,0.028c6.132,0.572 9.103,1.727 14.58,3.952c1.188,1.585 1.194,2.918 0.956,4.915c-0.907,7.605 -7.79,14.783 -15.811,13.773c-3.466,-0.435 -7.861,-3.923 -10.599,-6.238c-5.29,-2.97 -8.814,-4.02 -13.931,-0.21c2.784,-0.567 4.751,-1.075 7.459,0.15c1.765,0.643 2.529,1.06 3.904,2.35c2.715,2.205 4.976,5.01 7.906,6.89c1.276,0.58 2.405,1.173 3.772,1.47c8.464,0.033 10.729,-0.427 17.675,-6.342c13.737,-16.388 -1.435,-41.675 -10.65,-56.603c-0.798,-0.922 -1.512,-1.912 -2.211,-2.912c-3.495,-5.003 -7.494,-9.776 -10.73,-14.953Z" style="fill:#bbc702;fill-rule:nonzero;"/><path d="M157.07,336.12l0.298,2.087c1.195,5.651 1.502,10.633 2.537,15.728c-3.439,5.418 -7.102,9.185 -11.739,13.543l-1.701,1.364c-25.999,20.833 -78.983,20.016 -92.551,-15.364c1.175,-1.185 0.925,-3.763 1.301,-5.841l0.053,-0.284c2.642,1.964 5.503,5.247 8.495,7.527c2.937,2.235 5.488,3.27 8.111,5.093l1.642,0.312c6.849,2.315 17.517,4.285 24.586,2.802c0.439,-0.14 1.056,-0.252 1.521,-0.352c9.219,-1.11 14.628,-3.08 22.612,-7.99l1.203,-0.918c6.665,-5.535 9.854,-8.982 14.252,-16.65l0.369,-0.66c2.836,-0.172 6.427,0.5 9.418,0.545c3.488,0.053 6.157,-0.51 9.592,-0.942Z" style="fill:#f4ba18;fill-rule:nonzero;"/><path d="M157.07,336.12l0.298,2.087c1.195,5.651 1.502,10.633 2.537,15.728c-3.439,5.418 -7.102,9.185 -11.739,13.543c-3.467,-2.603 -9.47,-2.291 -13.393,-5.536c-2.137,-0.447 -9.464,-6.277 -11.335,-8.115c6.665,-5.534 9.854,-8.982 14.252,-16.649l0.37,-0.661c2.835,-0.172 6.426,0.5 9.417,0.546c3.488,0.052 6.157,-0.51 9.593,-0.943Z" style="fill:#f7e439;fill-rule:nonzero;"/><path d="M157.021,338.583l0.347,-0.376c1.195,5.65 1.502,10.633 2.537,15.728c-3.439,5.417 -7.102,9.185 -11.739,13.542c-3.467,-2.602 -9.47,-2.29 -13.393,-5.535c1.71,-1.31 3.884,-2.305 5.499,-3.5c3.655,-2.702 7.881,-6.355 10.756,-9.812c1.265,-1.522 6.143,-8.42 5.993,-10.048Z" style="fill:#f4ba18;fill-rule:nonzero;"/><path d="M157.07,336.12l0.298,2.087l-0.347,0.375c-3.922,0.93 -16.684,1.468 -19.331,-1.404l0.37,-0.661c2.835,-0.172 6.426,0.5 9.417,0.546c3.488,0.052 6.157,-0.51 9.593,-0.943Z" style="fill:#f4ba18;fill-rule:nonzero;"/><path d="M122.235,354.745c3.412,3.842 5.903,5.428 10.305,8.178c-2.98,2.662 -15.865,5.977 -20.182,6.459c-2.301,0.258 -6.571,0.603 -8.58,1.385c-1.13,-1.834 -3.116,-5.987 -4.155,-8.032c9.219,-1.11 14.628,-3.08 22.612,-7.99Z" style="fill:#f7e439;fill-rule:nonzero;"/><path d="M73.516,360.285c6.849,2.315 17.517,4.285 24.586,2.802c1.216,2.24 2.726,5.055 4.087,7.163c-0.565,0.255 -0.759,0.217 -1.376,0.247c-6.561,0.328 -21.81,-3.07 -26.477,-7.725c-0.291,-0.72 -0.579,-1.73 -0.82,-2.487Z" style="fill:#f7e439;fill-rule:nonzero;"/><path d="M122.235,354.745l1.203,-0.918c1.871,1.838 9.198,7.668 11.335,8.115c3.923,3.245 9.926,2.933 13.393,5.536l-1.701,1.364c-0.919,-1.084 -2.236,-1.484 -3.57,-1.812c-3.932,-0.962 -6.966,-1.822 -10.356,-4.107c-4.401,-2.75 -6.892,-4.335 -10.304,-8.178Z" style="fill:#e7a409;fill-rule:nonzero;"/><path d="M71.874,359.973l1.642,0.312c0.242,0.757 0.529,1.767 0.821,2.487c-0.503,3.663 5.836,10.608 4.561,12.965c-0.677,-0.117 -1.112,-0.585 -1.58,-1.132c-4.19,-4.908 -5.811,-8.148 -5.444,-14.632Z" style="fill:#e7a409;fill-rule:nonzero;"/><path d="M98.102,363.087c0.439,-0.139 1.056,-0.252 1.521,-0.352c1.039,2.045 3.025,6.197 4.155,8.032c1.221,0.193 10.29,7.581 10.096,8.798c-3.269,0.185 -9.478,-7 -11.686,-9.315c-1.36,-2.108 -2.87,-4.923 -4.086,-7.163Z" style="fill:#e7a409;fill-rule:nonzero;"/><path d="M79.55,314.848c1.764,0.642 2.528,1.06 3.903,2.349c2.715,2.205 4.976,5.01 7.906,6.89c0.256,2.391 0.91,4.56 0.681,7.026c-1.028,11.065 -13.462,17.894 -22.687,10.472c-3.122,-2.472 -5.112,-6.1 -5.517,-10.063c-0.676,-6.289 3.641,-14.607 10.324,-15.299c2.283,-0.685 4.229,0.662 5.389,-1.375Z" style="fill:#697701;fill-rule:nonzero;"/><path d="M79.55,314.848c1.764,0.642 2.528,1.06 3.903,2.349c-0.427,0.373 -0.241,0.27 -0.809,0.38c-3.778,-1.387 -4.666,-1.274 -8.484,-1.354c2.283,-0.685 4.229,0.662 5.389,-1.375Z" style="fill:#93a102;fill-rule:nonzero;"/><path d="M96.895,298.505c6.132,0.572 9.103,1.728 14.58,3.952c1.188,1.586 1.194,2.918 0.956,4.916c-0.907,7.605 -7.79,14.782 -15.811,13.772c-3.466,-0.435 -7.861,-3.922 -10.599,-6.237c1.032,-0.445 2.009,-0.428 2.563,-0.998l-0.287,-0.705c-3.961,-1.732 -7.849,-5.907 -4.84,-10.49c1.734,-2.64 5.888,-3.052 8.816,-3.412c1.025,-0.005 4.362,0.139 5.033,-0.39l-0.411,-0.408Z" style="fill:#697701;fill-rule:nonzero;"/><path d="M111.475,302.458c1.188,1.584 1.194,2.917 0.956,4.914c-0.907,7.606 -7.79,14.783 -15.812,13.773c-3.465,-0.435 -7.86,-3.923 -10.598,-6.238c1.032,-0.445 2.009,-0.427 2.563,-0.997l-0.287,-0.705c2.892,0.72 6.291,1.062 9.25,0.612c4.447,-0.672 8.438,-3.097 11.085,-6.735c1.059,-1.452 1.699,-3.122 2.843,-4.625Z" style="fill:#93a102;fill-rule:nonzero;"/><path d="M86.64,298.478c3.478,-0.706 6.733,-0.303 10.255,0.027l0.411,0.408c-0.671,0.529 -4.008,0.385 -5.034,0.389l0.105,-0.375c-3.933,0.288 -4.491,0.928 -8.015,1.828c-7.375,1.89 -13.798,7.315 -18.756,12.925c-6.98,7.895 -12.618,23.15 -10.337,33.673l-0.054,0.284c-0.376,2.078 -0.126,4.656 -1.3,5.841c-0.622,-1.498 -1.02,-3.183 -1.344,-4.75c-3.829,-18.546 4.254,-38.521 21.965,-46.588c4.23,-1.925 7.605,-2.685 12.104,-3.662Z" style="fill:#f7e439;fill-rule:nonzero;"/><path d="M86.64,298.478c3.478,-0.706 6.733,-0.303 10.255,0.027l0.411,0.408c-0.671,0.529 -4.008,0.385 -5.034,0.389l0.105,-0.375l-0.055,-0.215c-0.87,-0.385 -3.888,0.018 -5.682,-0.235Z" style="fill:#93a102;fill-rule:nonzero;"/><path d="M112.807,319.215c2.056,3.255 -0.325,10.782 -3.789,12.397c-6.047,2.82 -9.606,-0.067 -11.522,-5.785c-0.712,-0.072 -1.686,-0.147 -2.365,-0.269c8.464,0.032 10.729,-0.428 17.676,-6.343Z" style="fill:#697701;fill-rule:nonzero;"/><path d="M89.215,244.747c1.772,-0.898 4.326,-0.515 6.344,-0.389c3.876,2.59 6.114,4.088 7.287,9.227c0.49,2.15 0.468,7.287 -0.69,9.028c-0.798,-0.923 -1.512,-1.913 -2.211,-2.913c-3.495,-5.002 -7.494,-9.775 -10.73,-14.953Z" style="fill:#697701;fill-rule:nonzero;"/><path d="M100.894,231.722c2.443,2.511 4.833,4.572 7.388,6.899c4.309,3.923 10.895,11.183 13.619,16.274c-0.501,0.102 -0.619,0.087 -1.133,0.105c-5.04,-3.102 -10.867,-9.137 -14.616,-13.795c-1.846,-2.293 -5.563,-6.554 -5.258,-9.483Z" style="fill:#93a102;fill-rule:nonzero;"/><path d="M94.001,221.382c0.843,0.777 1.66,1.674 2.453,2.509l-0.509,0.722c-0.609,-1.069 -1.304,-2.173 -1.945,-3.231Z" style="fill:#464c00;fill-rule:nonzero;"/><path d="M130.691,162.093c3.465,0.057 5.666,0.388 8.595,2.446c7.849,5.516 9.922,18.396 4.248,26.133c-2.806,3.827 -5.962,5.322 -10.534,6.061l-0.336,0.049c-21.486,2.919 -20.878,-33.06 -1.973,-34.689Z" style="fill:#4e1f00;fill-rule:nonzero;"/><path d="M137.147,168.478c4.868,0.338 6.746,7.532 0.651,9.775c-5.623,-0.355 -6.241,-7.127 -0.651,-9.775Z" style="fill:#fefefe;fill-rule:nonzero;"/><path d="M177.638,160.308c1.601,-0.19 3.172,-0.478 4.737,0.116c6.602,2.503 8.097,11.906 7.712,18.086c-0.164,2.642 -1.023,5.557 -1.907,8.003c3.665,-0.176 11.644,1.353 13.388,4.798l-0.202,0.407c-0.93,0.175 -1.98,-0.407 -2.904,-0.782l-2.218,1.88c-7.605,1.167 -15.317,0.933 -22.838,3.217c-1.966,0.598 -7.582,2.113 -9.441,2.03l-0.04,-0.294c1.367,-1.456 2.89,-2.06 3.911,-3.161l-0.126,-0.36c2.379,-2.967 6.081,-4.019 9.392,-5.947c-5.731,-3.694 -7.016,-10.432 -6.187,-16.761c0.668,-5.097 2.713,-8.12 6.723,-11.232Z" style="fill:#4e1f00;fill-rule:nonzero;"/><path d="M167.836,194.608c8.033,-4.652 21.685,-5.614 30.626,-3.672l-2.218,1.88c-7.605,1.167 -15.317,0.933 -22.838,3.218c-1.967,0.597 -7.582,2.113 -9.441,2.03l-0.04,-0.295c1.367,-1.456 2.89,-2.06 3.911,-3.161Z" style="fill:#f7e439;fill-rule:nonzero;"/><path d="M180.51,166.475c5.6,-0.396 6.992,3.835 3.61,7.728c-5.707,1.014 -6.426,-3.716 -3.61,-7.728Z" style="fill:#fefefe;fill-rule:nonzero;"/><path d="M127.501,144.064c0.836,-0.068 1.672,-0.122 2.51,-0.162c4.098,-0.173 6.412,0.931 9.319,3.595c-6.384,-0.52 -10.497,0.012 -15.933,3.505c-2.456,1.659 -4.57,3.613 -6.554,5.803c0.337,-6.72 3.854,-11.543 10.658,-12.741Z" style="fill:#4e1f00;fill-rule:nonzero;"/><path d="M176.855,202.011c0.319,-0.034 0.638,-0.052 0.958,-0.055c4.125,-0.077 4.644,3.772 1.249,6.097c-3.891,0.649 -5.261,-3.115 -2.207,-6.042Z" style="fill:#4e1f00;fill-rule:nonzero;"/><path d="M197.631,197.872c3.788,0.498 1.326,5.103 -0.574,6.631c-4.422,0.025 -1.414,-5.079 0.575,-6.631Z" style="fill:#4e1f00;fill-rule:nonzero;"/><path d="M154.356,276.983c0.885,-1.325 2.434,-3.135 4.041,-3.271c3.039,-0.26 7.063,-0.075 10.145,-0.06l20.932,0.006l66.589,0.032c9.5,0.035 18.997,0.055 28.497,0.098c1.632,0.007 4.132,0.032 5.532,0.882c4.873,2.958 4.638,10.755 5.488,16.045l7.998,52.255l3.915,24.925c0.617,4.078 1.477,7.705 1.727,11.968c0.258,4.385 -1.045,6.474 -5.68,7.01c-3.88,0.175 -8.027,-0.233 -11.99,-0.318l-32.642,-0.803l-38.48,-0.334c-6.529,-0.12 -13.274,-0.411 -19.804,-0.695c-8.027,-0.351 -15.964,-0.096 -23.975,-0.536c-3.986,-0.267 -6.949,-1.67 -8.412,-5.66l-9.491,-59.652l-3.883,-23.618c-0.691,-4.394 -1.606,-8.834 -1.838,-13.284c-0.114,-2.193 0.294,-3.161 1.331,-4.99Z" style="fill:#fef9b7;fill-rule:nonzero;"/><path d="M154.356,276.983c0.885,-1.325 2.434,-3.135 4.041,-3.271c3.039,-0.26 7.063,-0.075 10.145,-0.06l20.932,0.006l66.589,0.032c9.5,0.035 18.997,0.055 28.497,0.098c1.632,0.007 4.132,0.032 5.532,0.882c4.873,2.958 4.638,10.755 5.488,16.045l7.998,52.255l3.915,24.925c0.617,4.078 1.477,7.705 1.727,11.968c0.258,4.385 -1.045,6.474 -5.68,7.01c-3.88,0.175 -8.027,-0.233 -11.99,-0.318l-32.642,-0.803l-38.48,-0.334c-6.529,-0.12 -13.274,-0.411 -19.804,-0.695c-8.027,-0.351 -15.964,-0.096 -23.975,-0.536c-3.986,-0.267 -6.949,-1.67 -8.412,-5.66c2.412,-0.209 3.483,1.798 5.51,1.966c18.642,1.555 37.76,0.727 56.406,1.115l39.88,1.099c9.232,0.3 22.512,1.473 31.712,0.238c2.148,-0.287 4.173,-3.225 5.163,-5.215c-0.12,-2.658 -0.97,-6.86 -1.42,-9.635l-2.37,-15.51l-5.828,-38.338c-1.432,-9.42 -2.747,-18.857 -4.305,-28.257c-0.812,-4.905 -3.337,-7.295 -8.385,-7.405c-7.835,-0.173 -15.672,-0.093 -23.507,-0.088l-44.165,-0.007l-40.926,-0.053l-11.552,-0.024c-3.039,-0.016 -5.722,-0.423 -8.35,0.929c-0.471,0.243 -0.596,-1.382 -0.862,-1.625c-0.231,-0.212 -0.603,-0.502 -0.882,-0.734Z" style="fill:#c8a06d;fill-rule:nonzero;"/><path d="M216.711,283.863c1.737,-0.158 3.531,-0.093 5.221,-0.151c11.859,-0.402 7.467,0.255 10.343,8.003c1.393,0.62 3.035,1.53 4.408,2.248c3.017,-2.128 3.822,-2.438 7.427,-2.845c2.263,1.812 6.82,7.397 8.028,9.962c-0.88,2.213 -2.925,5.105 -4.129,7.565l1.402,2.803c4.004,0.515 8.089,-0.108 7.207,5.465c-0.56,3.525 -0.968,7.387 -2.141,10.772c-2.057,0.078 -4.575,0.245 -6.587,0.07c-1.028,1.58 -1.825,2.823 -2.707,4.478c1.363,2.982 1.875,3.995 2.298,7.197c-1.851,2.365 -7.099,6.375 -9.925,7.458c-2.228,-0.803 -5.984,-3.18 -7.364,-5c-0.592,0.232 -1.162,1.085 -1.502,1.11c-3.718,0.26 -7.471,-0.428 -11.212,-0.515c-2.009,2.015 -2.894,2.835 -5.368,4.207c-3.727,-1.61 -7.865,-4.577 -11.008,-7.18c0.186,-2.412 1.021,-5.127 1.667,-7.48c-0.868,-1.64 -1.606,-2.58 -2.773,-3.995c-6.295,-0.837 -6.668,1.173 -7.547,-6.457c-0.932,-8.08 -3.223,-8.863 5.651,-10.103c0.405,-1.247 0.794,-2.66 1.172,-3.927c-1.584,-2.413 -3.394,-4.59 -4.733,-7.133c1.378,-2.352 5.953,-8.337 8.358,-9.452c1.876,-0.045 5.104,1.847 6.594,3.045c1.783,-0.443 3.468,-1.135 5.172,-1.813c0.198,-2.86 0.143,-6.13 2.048,-8.332Z" style="fill:#4e1f00;fill-rule:nonzero;"/><path d="M218.881,287.49l8.915,-0.02c1.674,9.86 2.91,5.62 9.228,10.505c1.75,-1.3 3.731,-2.31 5.674,-3.295c1.916,1.827 3.686,4 5.338,6.067l-0.114,0.28c-0.644,1.631 -2.803,4.506 -3.899,6.43c1.118,2.296 2.209,4.606 3.271,6.928c2.313,0.123 3.516,0.505 5.736,1.118c-0.065,2.964 -0.672,6.084 -1.192,9.01l-5.413,-0.283c-2.345,2.493 -3.522,4.533 -5.274,7.438c1.036,2.527 1.8,4.017 2.502,6.682c-1.922,1.69 -4.157,3.395 -6.486,4.46c-2.517,-1.27 -3.801,-3.015 -6.23,-4.137c-0.277,-0.13 -0.88,0.345 -1.166,0.517c-3.467,0.555 -10.232,0.238 -13.836,0.048c-1.702,1.592 -2.612,2.392 -4.495,3.737c-1.695,-1.48 -4.542,-3.25 -6.523,-4.852c0.755,-2.168 1.463,-4.185 2.092,-6.4c-1.42,-2.308 -2.891,-4.586 -4.413,-6.828c-1.93,-0.173 -3.86,-0.333 -5.791,-0.483c-0.696,-3.037 -1.232,-5.55 -1.722,-8.625c2.172,-0.802 3.47,-1.28 5.754,-1.57c0.931,-2.19 1.803,-5.032 2.446,-7.32c-1.402,-2.237 -3.01,-4.095 -4.497,-6.515c1.446,-2.057 3.255,-3.832 5.34,-5.237c2.93,0.947 3.489,1.215 5.961,2.96c2.686,-1.863 4.96,-2.23 7.571,-4c0.456,-2.143 0.831,-4.447 1.223,-6.615Z" style="fill:#fd8a02;fill-rule:nonzero;"/><path d="M221.429,303.5c4.923,-0.882 9.941,0.947 13.141,4.79c3.2,3.845 4.088,9.112 2.326,13.792c-1.762,4.68 -5.903,8.055 -10.843,8.836c-7.528,1.187 -14.61,-3.906 -15.877,-11.421c-1.268,-7.514 3.752,-14.649 11.253,-15.997Z" style="fill:#4e1f00;fill-rule:nonzero;"/><path d="M222.467,307.425c5.439,-0.803 10.498,2.96 11.289,8.402c0.792,5.44 -2.985,10.49 -8.428,11.271c-5.424,0.774 -10.453,-2.986 -11.242,-8.411c-0.789,-5.422 2.96,-10.459 8.381,-11.262Z" style="fill:#fef9b7;fill-rule:nonzero;"/><path d="M283.592,356.045c2.633,-0.093 5.578,-0.053 8.211,-0.025c1.367,0.012 3.355,2.932 -0.02,3.502c-0.31,0.728 0.232,2.193 0.237,3.31c0.022,3.863 -5.265,3.02 -6.743,4.56c0.75,0.773 5.038,1.448 6.888,2.193l0.392,0.16c1.671,1.917 2.265,3.002 1.06,5.307c-2.687,2.873 -7.579,3.005 -11.142,1.738c-1.05,-0.373 -1.885,-1.283 -2.27,-2.33c-0.635,-1.733 0.525,-2.685 1.315,-4.148c0.107,-1.657 -0.56,-1.452 -0.705,-2.88c0.425,-1.197 0.7,-1.377 1.58,-2.355c-3.61,-3.22 -4,-7.43 1.197,-9.032Z" style="fill:#4e1f00;fill-rule:nonzero;"/><path d="M285.533,358.95c2.702,0.14 3.852,2.615 1.854,4.658c-3.164,0.034 -4.709,-2.563 -1.854,-4.658Z" style="fill:#fef9b7;fill-rule:nonzero;"/><path d="M284.85,371.513c1.717,0.009 3.895,-0.303 4.96,1.184c0.012,0.888 0.053,0.873 -0.37,1.705c-1.757,0.093 -3.858,0.568 -4.94,-0.99c-0.082,-0.885 0.05,-1.077 0.35,-1.9Z" style="fill:#f4e4b2;fill-rule:nonzero;"/><path d="M225.014,355.658c1.189,-0.198 0.337,0.667 1.594,1.092c0.307,-0.33 0.442,-0.488 0.719,-0.858l0.229,-0.31c1.154,-0.305 3.088,-0.109 4.35,-0.055c7.12,4.846 3.989,18.016 -3.54,14.493l-0.268,-0.042c-0.226,1.169 0.253,4.88 0.389,6.262l-4.073,0.058c-0.459,-2.771 -2.191,-17.958 -1.858,-20.336c0.737,-0.352 1.59,-0.274 2.458,-0.304Z" style="fill:#4e1f00;fill-rule:nonzero;"/><path d="M228.239,358.395c4.172,0.345 3.975,6.523 2.143,9.213c-0.552,-0.033 -1.615,-0.108 -1.967,-0.478c-2.093,-2.207 -2.067,-6.665 -0.176,-8.735Z" style="fill:#fef9b7;fill-rule:nonzero;"/><path d="M179.046,350.038c3.684,-0.258 5.28,-0.326 8.17,2c-0.509,1.047 -0.646,1.344 -1.329,2.269c-1.484,0.525 -4.217,-1.792 -6.146,-0.269c-0.422,0.717 -0.415,0.659 -0.353,1.487c0.722,1.242 1.945,1.737 3.226,2.29c4.296,1.852 9.269,4.887 5.099,9.85c-1.298,1.545 -3.052,1.812 -4.975,1.922c-3.424,-0.07 -4.137,-0.557 -7.13,-2.21c0.454,-1.2 1.139,-2.162 1.828,-3.25l0.779,0.52c1.742,1.16 5.138,2.398 6.315,-0.09c-0.463,-3.215 -8.249,-3.507 -9.395,-7.8c-0.949,-3.555 0.518,-5.582 3.911,-6.72Z" style="fill:#4e1f00;fill-rule:nonzero;"/><path d="M269.983,356.027l0.252,-0.024c8.292,-0.765 6.95,9.442 7.29,15.305c-0.4,0.007 -1.57,-0.013 -1.915,-0c-4.463,0.159 -1.103,-8.993 -3.608,-11.335c-0.69,-0.646 -1.152,-0.493 -2.162,-0.538l-0.878,0.53c-0.89,1.448 0.143,8.18 0.09,10.98l-3.84,0.03c-0.495,-3.515 -1.027,-10.862 -1.325,-14.602c2.085,-0.25 2.03,-0.493 3.533,0.675l0.252,0.2c1.055,0.112 1.24,-0.375 2.31,-1.221Z" style="fill:#4e1f00;fill-rule:nonzero;"/><path d="M240.785,351.415l0.593,0.02c1.752,1.095 0.499,2.915 1.607,4.632c0.511,0.01 0.615,-0.034 1.092,-0.185l0.477,-0.149c1.107,0.534 1.177,2.175 0.824,3.214c-0.807,0.448 -0.859,0.226 -2.028,0.048l-0.266,0.27c-0.213,1.678 0.034,7.17 1.392,8.248c0.786,0.062 0.917,0.014 1.666,-0.133l0.22,-0.045c1.316,0.653 0.399,2.103 -0.122,3.1c-8.029,1.75 -6.698,-6.077 -7.448,-11.313c-0.041,-0.28 -1.295,-0.12 -1.958,-0.812c-0.21,-0.97 -0.18,-0.935 0.016,-1.928c0.592,-0.665 0.217,-0.409 1.292,-0.567c0.635,-1.137 0.392,-1.515 0.624,-2.868c0.577,-0.852 1.085,-1.014 2.019,-1.532Z" style="fill:#4e1f00;fill-rule:nonzero;"/><path d="M195.201,355.318c1.839,-0.356 5.398,-0.365 6.337,1.51c0.043,4.937 -4.314,0.052 -5.767,1.455c-2.999,2.9 -0.936,10.892 4.846,7.267l0.286,-0.182l0.618,0.14c0.478,1.142 1.055,2.115 0.447,3.3c-0.715,0.692 -1.203,0.77 -2.205,1.012c-7.13,1.728 -11.944,-6.847 -8.165,-12.502c0.833,-1.248 2.1,-1.778 3.603,-2Z" style="fill:#4e1f00;fill-rule:nonzero;"/><path d="M249.019,349.38c0.256,-0.02 1.926,-0.175 1.993,0.147c1.183,5.738 1.201,11.818 2.208,17.583c0.032,0.188 1.245,0.4 1.84,1.025c0.248,0.918 0.205,0.903 0.015,1.79c-0.468,0.725 -0.882,0.803 -1.682,1.147c-1.198,-0.122 -3.163,-0.267 -3.672,-1.32c-1.114,-2.302 -2.584,-18.255 -2.385,-20.027c0.655,-0.442 0.758,-0.295 1.683,-0.345Z" style="fill:#4e1f00;fill-rule:nonzero;"/><path d="M207.671,355.63l0.52,-0.762l0.518,-0.091c0.291,0.266 0.431,0.368 0.675,0.675c1.109,-0.202 2.535,-0.169 3.409,0.555c0.117,0.358 0.271,0.781 0.199,1.138c-0.757,3.763 -2.051,1.3 -3.78,2.585c-0.695,1.955 0.136,7.708 0.373,10.183c-1.057,-0.138 -3.073,-0.06 -4.209,-0.05c-0.44,-3.585 -0.984,-10.69 -1.178,-14.373c1.041,0.033 2.517,-0.117 3.473,0.14Z" style="fill:#4e1f00;fill-rule:nonzero;"/><path d="M207.671,355.63l0.52,-0.762l0.518,-0.091c0.291,0.266 0.431,0.368 0.675,0.675c-0.266,0.726 -0.262,0.911 -0.817,1.445c-0.619,-0.287 -0.517,-0.462 -0.896,-1.267Z" style="fill:#fef9b7;fill-rule:nonzero;"/><path d="M256.133,355.983l4.079,0.012c0.571,2.865 1.298,11.95 1.328,14.962c-1.16,-0.034 -2.43,0.003 -3.597,0.013c-0.783,-2.902 -1.543,-11.617 -1.81,-14.987Z" style="fill:#4e1f00;fill-rule:nonzero;"/><path d="M214.882,355.52l3.55,0.063c0.405,1.6 1.6,12.84 1.471,14.41c-1.803,-0.203 -1.94,-0.178 -3.697,0.089c-0.665,-3.437 -1.581,-11.115 -1.324,-14.562Z" style="fill:#4e1f00;fill-rule:nonzero;"/><path d="M215.492,348.628c3.428,0.255 4.644,2.04 1.996,4.78c-3.076,0.617 -4.457,-2.42 -1.997,-4.78Z" style="fill:#4e1f00;fill-rule:nonzero;"/><path d="M256.348,349.523l0.282,-0.008c2.89,-0.058 4.817,2.02 2.33,4.282c-3.17,-0.115 -5.095,-1.082 -2.612,-4.275Z" style="fill:#4e1f00;fill-rule:nonzero;"/><path d="M307.22,282.03c1.642,-0.06 3.747,-1.153 5.387,-1.685c2.188,-0.703 4.408,-1.3 6.653,-1.788c3.877,-0.812 7.252,-0.802 11.172,-0.937c11.818,-0.405 22.208,1.368 31.75,8.96c3.475,2.768 5.263,6.195 6.598,10.333c0.405,1.252 0.547,2.429 1.305,3.474l-0.225,0.26c-3.188,3.63 -8.813,7.808 -13.15,9.873c-9.45,4.5 -18.913,9.067 -23.735,19.02c-3.263,6.735 -4.11,16.035 2.25,21.373c1.895,1.597 3.972,2.737 6.517,2.52c0.4,-0.035 0.798,-0.085 1.193,-0.15c4.55,4.005 8.475,3.362 13.835,1.972c0.95,-0.247 4.147,0.858 5.4,0.3c8.197,-2.837 9.232,-9.975 17.613,-11.707c3.729,-0.24 5.304,-0.693 8.937,-1.873c-5.855,13.578 -4.578,22.203 3.467,34.128c-3.1,1.542 -4.464,1.632 -6.962,4.307c-1.235,-2.07 -1.793,-3.06 -3.743,-4.602c-2.467,-0.428 -6.407,-0.31 -9,-0.303c-4.625,0.053 -9.252,0.045 -13.877,-0.022c-4.02,0.187 -9.21,0.052 -13.313,0.052l-24.262,-0.02c-0.038,-1.903 -0.268,-4.115 -0.423,-6.035c-1.185,-4.863 -1.322,-7.848 -2.057,-12.627l-3.898,-25.218l-4.167,-27.243c-0.95,-5.972 -2.74,-16.397 -3.265,-22.362Z" style="fill:url(#_Linear1);fill-rule:nonzero;"/><path d="M388.72,341.975c-5.855,13.577 -4.578,22.202 3.467,34.128c-3.1,1.542 -4.464,1.632 -6.962,4.307c-1.235,-2.07 -1.793,-3.06 -3.743,-4.603c-2.467,-0.427 -6.407,-0.31 -9,-0.302c-4.625,0.053 -9.252,0.045 -13.877,-0.022l-0.072,-0.161c1.664,0.02 3.019,0.115 4.622,-0.357c2.222,-3.58 3.845,-4.89 6.402,-8.057c5.39,-6.645 8.918,-14.603 10.226,-23.06c3.729,-0.24 5.304,-0.693 8.937,-1.873Z" style="fill:#d56b01;fill-rule:nonzero;"/><path d="M320.608,369.48c1.825,0.53 5.682,3.565 7.49,4.67c0.104,0.065 0.204,0.72 0.232,0.882c1.3,0.555 26.735,0.31 30.202,0.29l0.073,0.16c-4.02,0.188 -9.21,0.053 -13.313,0.053l-24.262,-0.02c-0.038,-1.903 -0.268,-4.115 -0.423,-6.035Z" style="fill:#d56b01;fill-rule:nonzero;"/><path d="M29.673,302.223c-8.454,-25.815 -0.505,-64.256 27.07,-74.881l-1.869,4.223c-1.704,3.899 -3.971,9.016 -4.949,13.058c-2.531,10.469 -2.679,22.522 1.422,32.605c4.07,10.005 8.47,15.209 15.671,22.642c-1.124,0.79 -2.055,1.447 -3.123,2.33c-7.112,6.615 -8.465,7.713 -13.214,16.725c-0.72,1.7 -1.226,2.91 -1.769,4.667c-0.229,1.731 -1.385,4.526 -2.059,6.213c-1.478,-1.673 -3.165,-3.155 -4.631,-4.947c-3.904,-4.778 -7.575,-10.433 -9.899,-16.128c-1.022,-2.3 -1.798,-4.118 -2.65,-6.507Z" style="fill:#bbc702;fill-rule:nonzero;"/><path d="M50.682,318.925c-0.32,-0.433 -0.937,-0.558 -1.445,-0.93c-4.854,-3.363 -8.045,-10.127 -6.708,-16.137c3.041,-13.668 16.412,-8.338 21.366,0.342c-7.112,6.615 -8.465,7.713 -13.214,16.725Z" style="fill:#697701;fill-rule:nonzero;"/><path d="M29.673,302.223c-8.454,-25.815 -0.505,-64.256 27.07,-74.881l-1.869,4.223c-3.495,-2.644 -15.133,14.64 -16.788,17.483c-9.453,16.237 -9.545,34.277 -7.693,52.322c0.017,0.165 -0.581,0.735 -0.72,0.853Z" style="fill:#f7e439;fill-rule:nonzero;"/><path d="M32.323,308.73c1.088,0.267 1.455,0.55 2.179,1.375c1.692,1.925 12.16,13.35 14.103,13.5c0.102,0.007 0.205,-0.007 0.307,-0.013c-0.229,1.73 -1.385,4.525 -2.059,6.213c-1.478,-1.673 -3.165,-3.155 -4.631,-4.948c-3.904,-4.777 -7.575,-10.432 -9.899,-16.127Z" style="fill:#93a102;fill-rule:nonzero;"/><path d="M40.057,263.828c11.064,0.604 12.182,21.329 2.498,23.952c-1.639,0.03 -2.279,0.112 -3.626,-0.798c-5.956,-4.022 -7.438,-13.677 -3.51,-19.56c1.23,-1.842 2.523,-3.115 4.638,-3.595Z" style="fill:#697701;fill-rule:nonzero;"/><path d="M329.948,204.803c-13.968,-20.059 1.3,-52.329 27.815,-47.24c6.825,1.35 12.832,5.365 16.687,11.156c13.385,19.846 -0.82,48.268 -25.673,46.142c-2.072,-0.177 -4.049,-0.45 -6.107,-0.751c5.023,-0.631 9.143,-2.013 12.48,-6.188c5.663,-7.003 4.593,-19.255 -2.49,-24.871c-5.945,-4.715 -15.165,-3.114 -19.337,3.226c-3.465,5.26 -3.988,13.001 -1.655,18.752c-0.793,0.119 -0.951,0.001 -1.721,-0.226Z" style="fill:#fef9b7;fill-rule:nonzero;"/><path d="M273.715,209.708c-15.293,-3.637 -20.515,-14.952 -18.665,-30.059c1.77,-14.429 17.852,-28.796 32.447,-21.594c12.435,6.136 13.083,22.31 11.055,34.251c-2.425,0.057 -2.907,0.04 -5.162,0.609c-0.78,-1.133 -1.178,-3.786 -1.675,-5.27c-2.388,-7.043 -9.78,-11.472 -17.053,-8.727c-11.607,4.38 -11.302,24.934 -0.277,29.413c1.04,0.219 1.342,0.19 2.092,0.869l-0.045,0.387c-0.84,0.499 -1.707,0.236 -2.717,0.121Z" style="fill:#fef9b7;fill-rule:nonzero;"/><path d="M274.385,208.331c1.04,0.219 1.343,0.19 2.093,0.869l-0.046,0.387c-0.84,0.499 -1.707,0.236 -2.717,0.121c0.582,-0.234 0.575,-0.187 0.91,-0.705l-0.24,-0.672Z" style="fill:#f4e4b2;fill-rule:nonzero;"/><path d="M174.89,388.188c7.499,0.042 15.173,0.149 22.664,0.372c5.769,0.173 11.563,0.683 17.366,0.793l101.917,1.487c0.221,2.68 0.171,5.072 0.143,7.752c-4.825,-0.247 -10.515,-0.057 -15.487,-0.187l-51.323,-0.96c-9.184,-0.103 -18.555,-0.883 -27.733,-0.935c-9.694,-0.055 -19.255,-0.38 -28.937,-0.758c-5.451,-0.215 -11.723,0.268 -17.059,-0.317c-2.316,-2.8 -2.192,-3.86 -1.551,-7.248Z" style="fill:#ac5a16;fill-rule:nonzero;"/><path d="M265.545,137.936c-7.235,-4.319 -11.113,-10.103 -11.83,-18.739c-0.275,-6.2 1.822,-13.487 6.045,-18.09c6.332,-6.905 15.795,-9.403 23.155,-2.451c3.743,3.252 5.5,8.715 5.903,13.512c0.295,3.516 -0.063,5.699 -2.96,7.715c-1.031,0.599 -1.925,1.278 -2.891,1.974c0.25,-8.008 -1.112,-15.634 -9.727,-18.603l-0.855,1.233c8.392,5.572 2.493,12.036 2.498,19.789c0.002,1.275 -0.113,2.599 -0.171,3.878c-1.797,1.901 -4.022,4.131 -5.932,5.923c-1.172,1.604 -1.87,2.404 -3.235,3.859Z" style="fill:#fd8a02;fill-rule:nonzero;"/><path d="M268.78,134.077c-5.855,-2.205 -6.658,-2.694 -8.828,-8.871c-2.712,-7.725 1.193,-19.642 9.585,-21.889l0.28,0.655c1.008,0.376 1.483,0.385 2.568,0.515c8.392,5.572 2.493,12.036 2.498,19.789c0.002,1.275 -0.113,2.599 -0.171,3.878c-1.797,1.901 -4.022,4.131 -5.932,5.923Z" style="fill:#9b4b0e;fill-rule:nonzero;"/><path d="M282.915,98.656c3.743,3.252 5.5,8.715 5.902,13.512c0.296,3.516 -0.062,5.699 -2.959,7.715c-0.448,-4.737 -0,-9.808 -1.26,-14.838c-0.481,-1.917 -1.848,-3.899 -2.221,-5.751c-0.062,-0.311 0.215,-0.395 0.538,-0.638Z" style="fill:#d56b01;fill-rule:nonzero;"/><path d="M269.538,103.317c1.677,-0.57 2.024,-0.61 3.702,-0.063l-0.855,1.233c-1.085,-0.13 -1.56,-0.139 -2.567,-0.515l-0.28,-0.656Z" style="fill:#6e3609;fill-rule:nonzero;"/><path d="M292.635,273.538c5.038,-0.173 7.615,-0.708 9.565,4.764c0.665,2.518 0.665,4.905 1.055,7.44c4.618,29.958 9.285,59.908 14.09,89.84c0.148,0.921 0.728,1.495 1.338,2.138c-1.708,5.203 -2.226,6.75 -7.733,8.4c0.445,-2 1.15,-4.697 0.968,-6.73c-0.928,-10.382 -2.986,-20.625 -4.523,-30.917c-3.482,-23.253 -7.16,-46.475 -11.027,-69.668c-0.87,-2.587 -1.666,-3.69 -3.733,-5.267Z" style="fill:#ac5a16;fill-rule:nonzero;"/><path d="M292.635,273.538c5.038,-0.173 7.615,-0.708 9.565,4.764l-0.33,0.505c-2.45,-0.222 -3.225,-0.067 -5.502,-0.002c-0.87,-2.588 -1.666,-3.69 -3.733,-5.267Z" style="fill:#d56b01;fill-rule:nonzero;"/><path d="M283.015,208.501c0.06,-0.222 0.123,-0.444 0.192,-0.664c3.733,-11.993 15.968,-14.23 26.745,-10.77c2.768,0.365 4.505,1.776 5.971,2.019l2.647,1.065c1.14,1.53 1.618,2.172 1.697,4.108c-0.359,0.303 -0.865,0.116 -0.885,0.162c-4.344,10.303 -16.07,12.786 -26.17,12.057c-2.029,-0.146 -6.152,-1.095 -7.137,-2.934c-1.945,-1.76 -2.868,-2.257 -3.06,-5.043Z" style="fill:#9b4b0e;fill-rule:nonzero;"/><path d="M283.015,208.501c0.06,-0.222 0.123,-0.444 0.192,-0.664c3.733,-11.993 15.968,-14.23 26.745,-10.77l0.108,0.241c0.665,1.441 1.5,2.278 1.873,3.588l-0.15,0.245c-7.478,-1.442 -14.546,-1.331 -21.248,2.951c-2.48,1.585 -4.233,3.924 -6.918,5.158c-0.512,-0.196 -0.269,-0.05 -0.602,-0.749Z" style="fill:#ac5a16;fill-rule:nonzero;"/><path d="M315.923,199.086l2.647,1.065c1.14,1.53 1.618,2.172 1.697,4.108c-0.359,0.303 -0.865,0.116 -0.885,0.162c-4.344,10.303 -16.07,12.786 -26.17,12.057c-2.029,-0.146 -6.152,-1.095 -7.137,-2.934c4.017,2.224 6.723,2.837 11.295,2.631c9.68,-0.437 16.74,-2.964 21.59,-11.626c-0.732,-1.667 -1.83,-4.144 -3.037,-5.463Z" style="fill:#6e3609;fill-rule:nonzero;"/><path d="M379.163,380.55c0.274,-0.035 0.329,0.035 0.635,0.135c1.26,2.31 0.735,5.257 -0.268,7.548c-1.095,0.382 -2.513,0.812 -3.658,0.997c-13.892,2.265 -27.769,4.892 -41.507,7.965c-3.575,0.8 -8.468,1.947 -12.055,2.2c-0.305,0.035 -0.598,0.005 -0.91,-0.01c-0.527,-0.897 -0.52,-8.305 -0.34,-9.485c3.84,-2.947 22.94,-4.295 28.275,-5.46c5.288,-1.152 12.273,-1.517 17.763,-2.413c3.782,-0.619 7.805,-0.274 11.695,-1.372l0.37,-0.105Z" style="fill:url(#_Linear2);fill-rule:nonzero;"/><path d="M328.033,389.962c0.752,0.211 1.429,0.63 1.954,1.208c1.54,1.66 0.583,3.245 -0.81,4.47c-0.329,-0 -0.657,-0.008 -0.987,-0.023c-3.387,-0.177 -2.813,-3.965 -0.157,-5.655Z" style="fill:#4e1f00;fill-rule:nonzero;"/><path d="M386.578,396.655c-3.178,-0.325 -5.826,-1.693 -4.198,-5.363c6.39,-14.405 27.892,-14.567 40.48,-9.702c0.887,0.687 1.082,0.82 2.077,1.322c0.698,7.72 -2.625,9.473 -8.782,13.103c-0.553,0.325 -0.445,0.682 -1.37,1.027c-2.59,0.305 -12.483,0.885 -14.438,0.013c-0.392,-0.665 -0.327,-1.663 -0.235,-2.425c0.653,-5.33 5.415,-8.538 9.185,-11.577c-8.377,2.454 -12.305,5.377 -13.422,14.567c-1.633,-0.12 -3.46,-0.153 -5.113,-0.215c-0.127,-8.093 2.288,-8.778 6.423,-14.88c-5.765,4.505 -9.2,6.347 -10.608,14.13Z" style="fill:#fd8a02;fill-rule:nonzero;"/><path d="M126.572,218.859c1.694,0.232 3.51,0.554 5.202,0.724c8.43,0.847 17.29,5.25 22.439,12.084c1.156,1.472 3.37,4.525 4.623,5.571l0.469,0.045c0.397,-1.386 -0.666,-4.547 -1.233,-5.835l-0.223,-0.363c-1.141,-1.842 -4.374,-5.586 -4.914,-6.698c0.338,-0.321 0.205,-0.321 0.739,-0.262c8.165,0.894 17.732,6.099 16.519,15.825c-2.189,8.237 -10.203,6.139 -16.016,3.48c-7.027,-3.215 -12.166,-7.603 -17.672,-12.854c-3.743,-3.564 -7.296,-7.248 -9.933,-11.717Z" style="fill:#fd8a02;fill-rule:nonzero;"/><path d="M126.572,218.859c1.694,0.232 3.51,0.554 5.202,0.724c8.43,0.847 17.29,5.25 22.439,12.084c-4.299,0.069 -13.11,-7.053 -17.708,-1.091c-3.743,-3.564 -7.296,-7.248 -9.933,-11.717Z" style="fill:#f15205;fill-rule:nonzero;"/><path d="M158.071,231.448l-0.222,-0.364c-1.141,-1.841 -4.374,-5.585 -4.914,-6.697c0.338,-0.322 0.205,-0.321 0.738,-0.262c8.166,0.894 17.733,6.099 16.52,15.825l-0.259,-0.15c-1.425,-0.856 -1.548,-1.984 -2.557,-3.355c-2.093,-2.843 -5.814,-4.716 -9.306,-4.997Z" style="fill:#f15205;fill-rule:nonzero;"/><path d="M460.863,337.34c1.31,-4.488 2.985,-9.098 7.227,-11.658c2.145,-1.295 3.6,0.478 4.405,2.226c0.67,2.042 0.555,3.829 0.61,5.924c0.18,6.743 -1.325,12.216 -4.395,18.281c-3.695,7.425 -9.05,13.899 -15.647,18.927c-2.408,1.815 -5.055,3.387 -7.388,5.252c5.935,-9.042 10.022,-15.592 12.483,-26.54c0.957,-4.267 1.219,-8.227 2.704,-12.412Z" style="fill:#d56b01;fill-rule:nonzero;"/><path d="M460.863,337.34c1.31,-4.488 2.985,-9.098 7.227,-11.658c2.145,-1.295 3.6,0.478 4.405,2.226c-0.867,1.339 -1.165,3.247 -1.427,4.857c-0.958,5.88 -2.78,11.062 -7.41,15.13c-3.348,-4.978 -0.443,-8.14 -2.795,-10.555Z" style="fill:#fd8a02;fill-rule:nonzero;"/><path d="M142.934,298.365c2.659,0.063 5.318,0.015 7.972,-0.14c0.318,3.402 1.112,6.8 1.672,10.188l2.994,18.649c0.495,3.046 1.113,5.988 1.498,9.058c-3.435,0.433 -6.105,0.995 -9.593,0.942c-2.991,-0.045 -6.582,-0.717 -9.417,-0.545c2.382,-5.457 3.787,-10.06 4.613,-16.007c1.031,-8.58 0.845,-13.582 0.261,-22.145Z" style="fill:#f7e439;fill-rule:nonzero;"/><path d="M115.829,244.283c0.619,-0.472 0.368,-0.309 1.213,-0.47c8.578,4.886 23.049,12.814 32.822,14.489l0.375,0.068l0.225,0.038c1.113,2.219 2.258,4.362 3.062,6.714l0.932,2.375c0.46,1.055 0.535,0.82 0.445,1.83c-0.548,0.733 -0.79,0.808 -1.57,1.253c-1.52,-0.77 -15.782,-0.255 -18.337,0.257l-0.431,0.358l-0.665,-1.19c-1.952,-4.06 -4.316,-7.85 -6.675,-11.68c-0.574,-0.532 -1.996,-2.735 -2.578,-3.457c-2.86,-3.548 -5.717,-7.253 -8.819,-10.585Z" style="fill:#f4ba18;fill-rule:nonzero;"/><path d="M127.225,258.325c2.3,-0.725 5.128,2 7.341,2.61c4.813,1.327 14.025,4.44 18.96,4.188l0.932,2.375c0.46,1.055 0.535,0.82 0.445,1.829c-0.548,0.733 -0.79,0.808 -1.57,1.253c-1.52,-0.77 -15.782,-0.255 -18.337,0.257l-0.431,0.358l-0.665,-1.19c-1.952,-4.06 -4.316,-7.85 -6.675,-11.68Z" style="fill:#f7e439;fill-rule:nonzero;"/><path d="M154.458,267.498c0.46,1.055 0.535,0.82 0.445,1.829c-0.548,0.733 -0.79,0.808 -1.57,1.253c-1.52,-0.77 -15.782,-0.255 -18.337,0.257l-0.431,0.358l-0.665,-1.19c2.634,-2.303 13.221,-1.7 16.993,-2.222c1.158,-0.163 2.259,0.222 3.565,-0.286Z" style="fill:#f4ba18;fill-rule:nonzero;"/><path d="M134.565,271.195l0.431,-0.358c2.555,-0.512 16.817,-1.027 18.337,-0.257c-6.328,5.625 -5.222,11.105 -4.066,18.583c0.317,2.049 0.728,4.122 1.144,6.154c0.175,0.971 0.358,1.93 0.495,2.908c-2.654,0.155 -5.314,0.202 -7.972,0.14l-0.236,-1.903c-1.966,-10.414 -3.657,-15.592 -8.133,-25.267Z" style="fill:#f7e439;fill-rule:nonzero;"/><path d="M150.411,295.318c0.175,0.97 0.358,1.93 0.495,2.907c-2.654,0.155 -5.314,0.203 -7.972,0.14l-0.236,-1.902c2.306,-0.46 5.04,-0.12 7.451,-0.62l0.262,-0.525Z" style="fill:#f4ba18;fill-rule:nonzero;"/><path d="M339.535,247.856c1.327,-0.047 2.655,-0.073 3.982,-0.077c-1.802,9.069 -9.182,17.334 -18.617,18.486c-1.568,0.02 -3.188,-0.067 -4.758,-0.125c1.9,-10.182 8.708,-17.619 19.393,-18.284Z" style="fill:#f15205;fill-rule:nonzero;"/><path d="M303.418,235.46c6.154,5.522 10.714,6.856 18.764,7.118c-1.204,4.149 -1.652,5.762 -4.642,9.019c-3.275,2.736 -6.183,3.763 -10.365,4.27c-1.605,-5.44 -3.833,-14.652 -3.757,-20.408Z" style="fill:#fef9b7;fill-rule:nonzero;"/><path d="M299.408,236.194c0.587,0.547 0.822,2.752 0.94,3.644c0.719,5.426 2.182,10.597 3.437,15.922c-2.205,-0.995 -5,-1.64 -6.92,-3.055c-4.79,-3.324 -6.192,-7.484 -7.713,-12.8c2.68,-0.191 8.456,-1.71 10.256,-3.712Z" style="fill:#fef9b7;fill-rule:nonzero;"/><path d="M321.608,379.217c3.102,0.546 8.664,0.226 12.002,0.336c10.995,0.367 23.373,-0.64 34.2,0.36c-0.18,0.13 -2.493,0.392 -2.988,0.474c-3.152,0.07 -7.125,0.82 -10.427,0.971c-11.027,0.5 -22.335,1.297 -33.368,1.142c0.226,-1.055 0.398,-2.212 0.581,-3.283Z" style="fill:#ac5a16;fill-rule:nonzero;"/><path d="M349.462,186.49c4.831,0.238 6.136,6.954 1.368,9.261c-1.808,-0.015 -3.577,-0.49 -4.34,-2.232c-1.538,-3.506 0.227,-5.595 2.972,-7.029Z" style="fill:#fef9b7;fill-rule:nonzero;"/><path d="M284.083,184.301c5.659,0.514 6.524,6.335 1.052,8.858c-5.768,-0.521 -5.5,-6.741 -1.053,-8.858Z" style="fill:#fef9b7;fill-rule:nonzero;"/><path d="M339.985,348.988c-4.188,-3.193 -5.403,-5.513 -4.858,-10.791c1.445,0.963 2.908,2.563 4.606,2.651c-0.823,3.382 -0.368,4.744 0.252,8.139Z" style="fill:#d56b01;fill-rule:nonzero;"/><path d="M321.962,384.408c1.766,-0.043 4.213,-0.388 5.788,-0.093l0.377,0.397c-0.052,1.948 -3.925,1.166 -5.317,0.995c-1.183,0.486 -1.647,0.993 -2.545,0.036l0.127,-0.593c0.753,-0.715 0.453,-0.492 1.57,-0.742Z" style="fill:#6e3609;fill-rule:nonzero;"/><path d="M322.81,385.708c-1.183,0.484 -1.647,0.992 -2.545,0.034l0.127,-0.592c0.753,-0.715 0.453,-0.493 1.57,-0.743l0.911,0.478c0.125,0.592 0.162,0.32 -0.063,0.822Z" style="fill:#ac5a16;fill-rule:nonzero;"/><path d="M329.948,204.803c0.769,0.227 0.927,0.345 1.72,0.226c0.607,0.691 1.897,3.416 2.339,4.316c-1.717,-1.541 -2.622,-2.731 -4.06,-4.542Z" style="fill:#f4e4b2;fill-rule:nonzero;"/><path d="M114.036,242.195c1.159,0.553 1.933,0.889 3.006,1.618c-0.845,0.161 -0.594,-0.001 -1.213,0.47c-0.587,-0.421 -1.325,-1.481 -1.794,-2.088Z" style="fill:#e7a409;fill-rule:nonzero;"/><path d="M459.455,326.765c0.178,-0.75 0.145,-0.86 0.627,-1.475l0.305,0.193l-0.002,0.962c-0.41,0.743 -0.298,0.845 -0.92,1.138c-0.157,-0.568 -0.165,-0.295 -0.01,-0.818Z" style="fill:#4e1f00;fill-opacity:0.02;fill-rule:nonzero;"/><defs><linearGradient id="_Linear1" x1="0" y1="0" x2="1" y2="0" gradientUnits="userSpaceOnUse" gradientTransform="matrix(-43.4925,-97.33,97.33,-43.4925,363.27,374.408)"><stop offset="0" style="stop-color:#f69e0c;stop-opacity:1"/><stop offset="1" style="stop-color:#fc2;stop-opacity:1"/></linearGradient><linearGradient id="_Linear2" x1="0" y1="0" x2="1" y2="0" gradientUnits="userSpaceOnUse" gradientTransform="matrix(-3.8575,-13.555,13.555,-3.8575,352.062,395.488)"><stop offset="0" style="stop-color:#884f23;stop-opacity:1"/><stop offset="1" style="stop-color:#aa6c30;stop-opacity:1"/></linearGradient></defs></svg>