<svg xmlns="http://www.w3.org/2000/svg" xmlns:xlink="http://www.w3.org/1999/xlink" width="297mm" height="210mm"><defs><linearGradient id="b"><stop offset="0" style="stop-color:#669;stop-opacity:1"/><stop offset="1" style="stop-color:#fff;stop-opacity:1"/></linearGradient><linearGradient id="a"><stop offset="0" style="stop-color:#f90;stop-opacity:1"/><stop offset="1" style="stop-color:#fff;stop-opacity:1"/></linearGradient><linearGradient xlink:href="#a" id="h" x1="962.807" x2="239.323" y1="487.914" y2="-422.628" gradientUnits="userSpaceOnUse"/><linearGradient xlink:href="#b" id="c" x1="996.753" x2="-635.195" y1="572.643" y2="-1226.594" gradientUnits="userSpaceOnUse"/><linearGradient xlink:href="#a" id="i" x1="962.807" x2="239.323" y1="487.914" y2="-422.628" gradientUnits="userSpaceOnUse"/><linearGradient xlink:href="#a" id="j" x1="962.807" x2="239.323" y1="487.914" y2="-422.628" gradientUnits="userSpaceOnUse"/><linearGradient xlink:href="#a" id="k" x1="962.807" x2="239.323" y1="487.914" y2="-422.628" gradientUnits="userSpaceOnUse"/><linearGradient xlink:href="#a" id="l" x1="962.807" x2="239.323" y1="487.914" y2="-422.628" gradientUnits="userSpaceOnUse"/><linearGradient xlink:href="#b" id="e" x1="996.753" x2="-635.195" y1="572.643" y2="-1226.594" gradientUnits="userSpaceOnUse"/><linearGradient xlink:href="#b" id="f" x1="996.753" x2="-635.195" y1="572.643" y2="-1226.594" gradientUnits="userSpaceOnUse"/><linearGradient xlink:href="#b" id="g" x1="996.753" x2="-635.195" y1="572.643" y2="-1226.594" gradientUnits="userSpaceOnUse"/></defs><g style="display:inline"><g fill="none" style="fill:#000;fill-opacity:0;stroke:#000;stroke-width:3.83385825;stroke-linejoin:round;stroke-miterlimit:4;stroke-opacity:.85098039;stroke-dasharray:none"><g style="fill:#000;fill-opacity:0;stroke:#000;stroke-width:3.83385825;stroke-linejoin:round;stroke-miterlimit:4;stroke-opacity:.85098039;stroke-dasharray:none;display:inline"><path fill="none" d="M976.338 451.426c10.718-1.278 17.603-3.578 20.415-6.898L888.81 457.8h-.767L450.63 510.885h-.256c.512 22.97 10.464 40.575 30.624 53.594 5.365 3.564 10.974 6.375 16.082 8.164 4.588-5.366 10.21-9.698 16.586-13.273h.255c57.169-34.7 142.142-40.066 254.429-16.584l1.275.51c12.255 2.55 24.25 5.61 35.733 8.932 3.565.51 6.376-.257 8.676-2.301 4.076-3.066 9.186-5.352 16.072-7.141v-.256c17.873-32.155 42.62-55.894 73.242-71.2 21.183-10.72 45.43-17.356 72.99-19.904zM573.379 152.59c-.255-.256-.511-.51-1.011-.51-.512 0-.767 0-1.021.254-.257.256-.511.768-.767 1.277l-20.415 331.493v.256c.256-.256.51-.256.51-.256s.257-.252.51-.252c.77 0 1.269 0 2.034.252l20.67-331.493c0-.256-.253-.765-.51-1.021zm172.266-81.917c-.256-.257-.512-.768-1.021-.768-.512 0-.768.51-1.277.51a1.95 1.95 0 0 0-.513 1.278l-21.69 392.743h2.043c.254 0 .254 0 .51-.26v-.245h.513L745.39 81.9v-.767h.257l-.256-.255h.256l-.256-.257c0-.254 0-.254.256-.511-.256 0-.256 0-.256-.257v-.252h.256c-.256 0-.256 0-.256-.257h.256l.255-7.653c-.002-.51-.002-.764-.257-1.02z" style="fill:#000;fill-opacity:0;stroke:#000;stroke-width:3.83385825;stroke-linejoin:round;stroke-miterlimit:4;stroke-opacity:.85098039;stroke-dasharray:none" transform="translate(54.355 1.646)"/></g><path fill="none" d="m794.896 309.538-1.277-2.3-55.127-97.235c26.547 55.128 36.243 138.066 29.092 249.076l104.632-12.764zM714 461.122l25.002-383.053c-36.487 139.854-94.424 270.257-174.297 391.473zm-169.711 17.093 21.947-323.581-115.862 333.28zM746.4 80.369l-.245.254V81.9l-.255.258h.255v.51l26.794 44.396-2.813-4.075c18.883 55.369 26.803 114.84 23.738 177.61v.252l.254.256c.257.512.768.766 1.02 1.277 0 0 0 .256.257.512l24.749 43.642c.254.256.254.51.254 1.023h.257c.51.25.51.508 1.02.765 37.768 33.178 80.64 55.627 127.86 67.366l11.479 18.628c.504 0 1.017 0 1.27.509.257-.254.257-.51.513-.51z" style="fill:#000;fill-opacity:0;stroke:#000;stroke-width:3.83385825;stroke-linejoin:round;stroke-miterlimit:4;stroke-opacity:.85098039;stroke-dasharray:none;display:inline" transform="translate(54.355 1.646)"/></g></g><g style="display:inline"><path d="m847.619 307.239 1.277 2.299z"/><g style="fill:url(#c);fill-opacity:1" transform="translate(54)"><path d="M976.338 451.426c10.718-1.278 17.603-3.578 20.415-6.898L888.81 457.8h-.767L450.63 510.885h-.256c.512 22.97 10.464 40.575 30.624 53.594 5.365 3.564 10.974 6.375 16.082 8.164 4.588-5.366 10.21-9.698 16.586-13.273h.255c57.169-34.7 142.142-40.066 254.429-16.584l1.275.51c12.255 2.55 24.25 5.61 35.733 8.932 3.565.51 6.376-.257 8.676-2.301 4.076-3.066 9.186-5.352 16.072-7.141v-.256c17.873-32.155 42.62-55.894 73.242-71.2 21.183-10.72 45.43-17.356 72.99-19.904" style="fill:url(#e);fill-opacity:1"/><path d="M573.379 152.59c-.255-.256-.511-.51-1.011-.51-.512 0-.767 0-1.021.254-.257.256-.511.768-.767 1.277l-20.415 331.493v.256c.256-.256.51-.256.51-.256s.257-.252.51-.252c.77 0 1.269 0 2.034.252l20.67-331.493c0-.256-.253-.765-.51-1.021" style="fill:url(#f);fill-opacity:1"/><path d="M745.645 70.673c-.256-.257-.512-.768-1.021-.768-.512 0-.768.51-1.277.51a1.95 1.95 0 0 0-.513 1.278l-21.69 392.743h2.043c.254 0 .254 0 .51-.26v-.245h.513L745.39 81.9v-.767h.257l-.256-.255h.256l-.256-.257c0-.254 0-.254.256-.511-.256 0-.256 0-.256-.257v-.252h.256c-.256 0-.256 0-.256-.257h.256l.255-7.653c-.002-.51-.002-.764-.257-1.02" style="fill:url(#g);fill-opacity:1"/></g><path d="M800.155 79.856v.257h.246z"/><path d="M485.731 510.312h-.766M390.54 359.751l1.277 2.299" style="fill:none;stroke:#000;stroke-width:0;stroke-linecap:round;stroke-linejoin:round" transform="translate(457.079 -52.512)"/><g style="display:inline"><g style="fill:none;stroke:#00002b"><path d="M213.43 634.596c-5.353-2.045-11.229-3.323-17.348-3.834-12.509-.767-27.56 4.088-45.177 14.552-17.605 10.464-38.786 14.796-64.046 12.508m58.948-25.271c-28.834 13.785-50.016 16.084-63.033 7.4-13.273-8.934-33.689-6.634-61.247 6.385m349.364-37.767c-121.472-25.012-209.01-19.147-262.602 17.862m339.154-5.876c-5.354-2.034-11.229-3.31-17.351-3.819-12.506-1.022-27.557 3.819-45.171 14.282-17.607 10.72-38.791 14.809-64.048 12.763" style="fill:none;stroke:#00002b;stroke-width:1.20000005;stroke-linecap:round;stroke-linejoin:round" transform="translate(457.079 -52.512)"/></g></g></g><g style="display:inline"><g style="fill:url(#h);fill-opacity:1" transform="translate(54)"><path d="m794.896 309.538-1.277-2.3-55.127-97.235c26.547 55.128 36.243 138.066 29.092 249.076l104.632-12.764z" style="fill:url(#i);fill-opacity:1;display:inline"/><path d="m714 461.122 25.002-383.053c-36.487 139.854-94.424 270.257-174.297 391.473z" style="fill:url(#j);fill-opacity:1;display:inline"/><path d="m544.289 478.215 21.947-323.581-115.862 333.28z" style="fill:url(#k);fill-opacity:1;display:inline"/><path d="m746.4 80.369-.245.254V81.9l-.255.258h.255v.51l26.794 44.396-2.813-4.075c18.883 55.369 26.803 114.84 23.738 177.61v.252l.254.256c.257.512.768.766 1.02 1.277 0 0 0 .256.257.512l24.749 43.642c.254.256.254.51.254 1.023h.257c.51.25.51.508 1.02.765 37.768 33.178 80.64 55.627 127.86 67.366l11.479 18.628c.504 0 1.017 0 1.27.509.257-.254.257-.51.513-.51z" style="fill:url(#l);fill-opacity:1;display:inline"/></g></g><g style="display:inline"><path d="M284.374 208.167c-12.495-7.919-25.77-5.874-39.044 6.12-11.74-11.994-24.246-14.039-36.998-6.12m47.718-42.874c-12.762-7.653-25.269-4.855-38.021 9.185-12.506-14.04-25.27-16.838-38.032-9.185" style="fill:none;stroke:#000;stroke-width:2.9000001;stroke-linecap:round;stroke-linejoin:round" transform="translate(554.456 -31.659)scale(.6103)"/><g style="stroke:#000;stroke-opacity:.4807692;display:inline"><path d="M284.374 208.167c-12.495-7.919-25.77-5.874-39.044 6.12-11.74-11.994-24.246-14.039-36.998-6.12m47.718-42.874c-12.762-7.653-25.269-4.855-38.021 9.185-12.506-14.04-25.27-16.838-38.032-9.185" style="fill:none;stroke:#000;stroke-width:2.9000001;stroke-linecap:round;stroke-linejoin:round;stroke-opacity:.4807692" transform="translate(554.136 -30.438)scale(.6103)"/></g></g><g style="display:inline"><g style="font-size:40px;font-style:normal;font-weight:400;fill:#000;fill-opacity:0;stroke:#000;stroke-width:13.81889725;stroke-linejoin:round;stroke-miterlimit:4;stroke-opacity:.85;font-family:Bitstream Vera Sans"><path fill="none" d="M59.713 548.399 45.018 591.64h12.234q12.164 0 18.972-5.133 6.807-5.133 10.867-17.086 3.92-11.53.892-16.277-3.027-4.746-14.489-4.746zm-14.47-16.383h38.6q17.439 0 23.722 10.266 6.285 10.264.049 28.617-2.558 7.522-6.735 13.816-4.177 6.293-10.092 11.496-7.05 6.258-14.86 8.965-7.811 2.707-19.202 2.707H39.498l-9.342 27.492h-20.04zm97.232-27.492h19.899l-9.343 27.492h17.79q16.733 0 21.987 6.574 5.254 6.575.284 21.2l-16.344 48.093h-20.18l15.557-45.773q2.65-7.804.758-10.618-1.89-2.812-9.555-2.812h-15.961l-20.119 59.203H107.35zm91.895 43.875-14.696 43.242h12.235q12.164 0 18.97-5.133 6.808-5.133 10.868-17.086 3.92-11.53.893-16.277-3.03-4.746-14.49-4.746zm-14.472-16.383H258.5q17.437 0 23.722 10.266 6.284 10.264.048 28.617-2.557 7.522-6.735 13.816-4.178 6.293-10.092 11.496-7.049 6.258-14.86 8.965-7.812 2.707-19.202 2.707h-17.226l-9.343 27.492h-20.04zm99.272-27.492h31.923l-.585 79.312 53.319-79.312h31.781l-35.125 103.36h-21.305l29.118-80.509-53.868 80.508h-23.062l.294-81.351-25.466 81.351h-22.149zm138.89 86.625h16.101l20.097-59.133h20.039l-25.089 73.828q-5.115 15.047-14.607 22.29-9.492 7.24-23.977 7.241H411.32l5.234-15.398h35.859q5.766 0 9.802-2.777t5.83-8.051l.43-1.266h-17.719q-17.016 0-21.975-6.715-4.958-6.714.367-22.394l15.89-46.758h19.83l-15.364 45.21q-2.918 8.58-1.26 11.25 1.66 2.673 9.816 2.673zm118.859-66.094-28.64 39.797h30.798zm-3.71-20.531h23.063l8.96 103.36h-24.187l-1.13-24.61h-44.929l-17.574 24.61H494.35zM666.3 591.64l14.694-43.241h-12.093q-12.164 0-18.993 5.097-6.83 5.099-10.868 16.98-3.92 11.532-.881 16.349 3.038 4.816 14.43 4.816zm14.448 16.243h-38.46q-17.439 0-23.722-10.266-6.285-10.264-.049-28.617 2.558-7.522 6.735-13.816 4.177-6.293 10.092-11.496 7.05-6.258 14.895-8.965 7.846-2.707 19.167-2.707h17.156l9.343-27.492h19.969zm43.291-75.867h76.922q16.734 0 21.896 6.539 5.16 6.54.164 21.234l-16.343 48.094h-20.18l15.46-45.492q2.844-8.367 1.22-11.04-1.624-2.67-9.499-2.671h-11.25l-20.118 59.203H741.85l20.118-59.203h-23.414l-20.118 59.203h-20.18zm150.245-8.649H853.26l6.403-18.843h21.023zm-28.723 84.516h-21.024l25.783-75.867h21.024zm43.009-75.867h37.688q17.085 0 22.212 6.434 5.125 6.433.06 21.34l-16.344 48.093h-20.04l15.51-45.633q2.89-8.507 1.113-11.039-1.778-2.53-9.723-2.531h-16.101l-20.119 59.203h-20.039z" style="fill:#000;fill-opacity:0;stroke:#000;font-family:HandelGothic BT;-inkscape-font-specification:HandelGothic BT Italic" transform="translate(-2)"/></g></g><g style="display:inline"><g style="font-size:40px;font-style:normal;font-weight:400;fill:#000;fill-opacity:1;stroke:#fff;stroke-width:3.12519693;stroke-linejoin:round;stroke-miterlimit:4;font-family:Bitstream Vera Sans"><path d="m58.067 546.17-14.695 43.242h12.234q12.165 0 18.971-5.133t10.868-17.086q3.92-11.53.892-16.277-3.027-4.746-14.489-4.746zm-14.471-16.383h38.602q17.437 0 23.721 10.266 6.285 10.265.049 28.617-2.558 7.524-6.735 13.816-4.178 6.294-10.092 11.496-7.05 6.258-14.86 8.965-7.811 2.707-19.202 2.707H37.852l-9.343 27.492H8.47zm97.234-27.492h19.898l-9.343 27.492h17.79q16.733 0 21.987 6.574 5.253 6.575.284 21.2l-16.344 48.093h-20.18l15.557-45.773q2.65-7.804.758-10.617t-9.556-2.813h-15.96l-20.119 59.203h-19.898zm91.893 43.875-14.695 43.242h12.234q12.165 0 18.972-5.133t10.867-17.086q3.92-11.53.892-16.277-3.027-4.746-14.488-4.746zm-14.47-16.383h38.6q17.439 0 23.722 10.266 6.285 10.265.049 28.617-2.558 7.524-6.735 13.816-4.178 6.294-10.092 11.496-7.05 6.258-14.86 8.965-7.811 2.707-19.202 2.707H212.51l-9.343 27.492h-20.04z" style="fill:#669;fill-opacity:1;stroke:#fff;font-family:HandelGothic BT;-inkscape-font-specification:HandelGothic BT Italic" transform="translate(-2)"/><path d="M317.525 502.295h31.922l-.585 79.312 53.319-79.312h31.781l-35.125 103.36h-21.305l29.118-80.509-53.868 80.508H329.72l.294-81.351-25.466 81.351h-22.149zm138.889 86.625h16.101l20.097-59.133h20.039l-25.089 73.828q-5.116 15.046-14.607 22.29-9.492 7.24-23.977 7.241h-39.304l5.233-15.398h35.86q5.765 0 9.802-2.777 4.036-2.778 5.83-8.051l.43-1.266H449.11q-17.016 0-21.975-6.715t.367-22.394l15.89-46.758h19.829l-15.363 45.211q-2.918 8.578-1.26 11.25 1.66 2.672 9.816 2.672zm118.859-66.094-28.64 39.797h30.797zm-3.71-20.531h23.063l8.96 103.36H579.4l-1.13-24.61h-44.93l-17.574 24.61h-23.062zm93.09 87.117 14.695-43.242h-12.093q-12.164 0-18.994 5.098-6.829 5.097-10.867 16.98-3.92 11.532-.881 16.348t14.43 4.816zm14.45 16.242H640.64q-17.437 0-23.721-10.265-6.285-10.266-.049-28.618 2.558-7.522 6.735-13.816 4.177-6.293 10.092-11.496 7.05-6.258 14.895-8.965 7.846-2.707 19.167-2.707h17.156l9.343-27.492h19.969zm43.29-75.867h76.922q16.734 0 21.895 6.54 5.162 6.539.165 21.233l-16.343 48.094h-20.18l15.46-45.492q2.843-8.367 1.22-11.039-1.625-2.672-9.499-2.672h-11.25l-20.118 59.203h-20.461l20.118-59.203h-23.414l-20.118 59.203h-20.18zm150.244-8.648h-21.023l6.403-18.844h21.023zm-28.722 84.515H822.89l25.783-75.867h21.024zm43.009-75.867h37.688q17.085 0 22.212 6.434 5.126 6.433.06 21.34l-16.344 48.093H910.5l15.509-45.633q2.892-8.507 1.114-11.039-1.777-2.53-9.723-2.53h-16.1l-20.119 59.202h-20.039z" style="fill:#f90;fill-opacity:1;stroke:#fff;font-family:HandelGothic BT;-inkscape-font-specification:HandelGothic BT Italic" transform="translate(-2)"/></g></g></svg>
