<svg xmlns="http://www.w3.org/2000/svg" xml:space="preserve" viewBox="55.52 0 400.93 512.02"><path d="M164.063.01c-2.587.075-5.382 1.038-8.535 3.53-7.752-2.982-15.258-4.021-21.98 2.06-10.377-1.35-13.748 1.435-16.297 4.673-2.275-.047-17.042-2.341-23.812 7.761-17.014-2.01-22.386 10.009-16.296 21.216-3.475 5.382-7.072 10.688 1.048 20.95-2.87 5.713-1.095 11.907 5.674 19.404-1.784 8.025 1.728 13.69 8.026 18.109-1.18 10.99 10.074 17.372 13.435 19.648 1.294 6.401 3.975 12.444 16.835 15.786 2.115 9.536 9.847 11.189 17.325 13.19-24.728 14.37-45.924 33.282-45.782 79.678l-3.626 6.458c-28.353 17.24-53.855 72.654-13.974 117.69 2.606 14.097 6.978 24.228 10.868 35.435 5.816 45.16 43.79 66.31 53.808 68.811 14.672 11.179 30.307 21.791 51.457 29.222 19.94 20.564 41.543 28.4 63.268 28.391h.963c21.726.01 43.328-7.827 63.26-28.391 21.149-7.43 36.784-18.043 51.466-29.222 10.018-2.502 47.992-23.651 53.808-68.81 3.89-11.208 8.261-21.339 10.867-35.435 39.882-45.037 14.38-100.46-13.973-117.7l-3.626-6.458c.142-46.396-21.055-65.299-45.783-79.678 7.478-2.002 15.21-3.654 17.326-13.19 12.85-3.343 15.54-9.385 16.834-15.787 3.362-2.275 14.616-8.667 13.436-19.648 6.297-4.419 9.81-10.084 8.025-18.109 6.77-7.497 8.554-13.69 5.675-19.403 8.129-10.253 4.522-15.56 1.048-20.941 6.09-11.207.717-23.227-16.306-21.216-6.77-10.102-21.527-7.808-23.802-7.76-2.56-3.24-5.92-6.015-16.297-4.674-6.713-6.08-14.228-5.042-21.98-2.058-9.196-7.261-15.286-1.445-22.235.755-11.141-3.635-13.681 1.35-19.157 3.38-12.142-2.568-15.834 3.021-21.66 8.922l-6.769-.132c-18.317 10.792-27.41 32.772-30.638 44.074-3.23-11.302-12.312-33.282-30.629-44.083l-6.77.132c-5.835-5.901-9.517-11.49-21.668-8.922-5.476-2.03-8.016-7.016-19.157-3.38-4.57-1.436-8.762-4.438-13.7-4.278"/><path d="M-71.7-33.9C-5.2.4 33.5 28.2 54.7 51.8 43.9 95.4-12.8 97.3-33.5 96.1c4.2-2 7.8-4.3 9-8-5.2-3.7-23.6-.4-36.5-7.6 4.9-1 7.3-2 9.6-5.7-12.2-3.9-25.3-7.2-33-13.6 4.2.1 8 .9 13.5-2.8-10.9-5.9-22.5-10.5-31.5-19.5 5.6-.1 11.7-.1 13.5-2.1-10-6.2-18.4-13-25.3-20.6 7.9 1 11.2.1 13.1-1.2-7.5-7.7-17.1-14.2-21.6-23.7 5.9 2 11.2 2.8 15.1-.2-2.6-5.8-13.5-9.2-19.8-22.7 6.2.6 12.7 1.3 14 0-2.9-11.6-7.8-18.2-12.6-25 13.2-.2 33.2.1 32.3-1.1l-8.2-8.3c12.9-3.5 26.1.6 35.6 3.5 4.3-3.4-.1-7.7-5.3-12.1 10.9 1.5 20.8 4 29.8 7.4 4.8-4.3-3.1-8.6-6.9-12.9 16.9 3.2 24.1 7.7 31.2 12.2 5.2-5 .3-9.2-3.2-13.5 12.5 4.8 19.1 10.9 26 17 2.3-3.2 6-5.5 1.6-13.1 9.1 5.2 15.9 11.4 20.9 18.3 5.6-3.6 3.3-8.4 3.4-12.9 9.4 7.7 15.4 15.8 22.7 23.7 1.5-1.1 2.8-4.7 3.9-10.5C80.2-37.1 112 17.7 66 39.5 26.8 7.1-20-16.3-71.7-33.9m353.3-.1C229.8-16.4 183 7.1 143.9 39.4c-46-21.7-14.3-76.6 8.2-98.4 1.1 5.7 2.4 9.4 3.9 10.5 7.3-8 13.3-16.1 22.7-23.7 0 4.5-2.2 9.4 3.4 12.9 5-6.9 11.9-13 20.9-18.3-4.4 7.6-.7 10 1.6 13.1 6.9-6 13.5-12.1 26.2-16.8-3.5 4.3-8.4 8.5-3.2 13.5 7.1-4.5 14.3-9 31.2-12.2-3.8 4.3-11.7 8.6-6.9 12.9 8.9-3.5 18.8-6 29.8-7.4-5.2 4.4-9.6 8.7-5.3 12.1 9.6-3 22.7-7 35.6-3.5l-8.2 8.3c-.9 1.1 19.1.9 32.3 1.1-4.8 6.8-9.7 13.3-12.6 25 1.3 1.3 7.8.6 14 0-6.3 13.5-17.3 16.9-19.8 22.7 3.9 3 9.2 2.2 15.1.2-4.5 9.5-14.1 16-21.6 23.7 1.9 1.4 5.2 2.2 13.1 1.2-7 7.5-15.4 14.4-25.3 20.6 1.8 2.1 7.8 2 13.5 2.1-9 9-20.7 13.6-31.5 19.5 5.4 3.8 9.3 2.9 13.5 2.8-7.7 6.4-20.8 9.8-33 13.6 2.3 3.6 4.6 4.6 9.6 5.7-12.9 7.2-31.3 3.9-36.5 7.6 1.3 3.6 4.8 6 9 8-20.7 1.2-77.4-.8-88.3-44.3C176.3 28.1 215 .4 281.6-34" style="fill:#75a928" transform="translate(180 72.296)scale(.72973)"/><path d="M106.1 506.2c32.1-1.4 75.1 10.3 75.1 25.9.5 15.1-39 49.2-77.3 48.6-39.6 1.7-78.5-32.5-78-44.3-.5-17.4 48.4-31 80.2-30.2m113.8-100.8c-24.7 28.9-38.4 81.7-20.4 98.7 17.2 13.2 63.5 11.4 97.6-36 24.8-31.8 16.5-85 2.3-99.1-21-16.4-51.2 4.4-79.5 36.4m-232.2 8.7c22.8 27.5 33.2 75.8 14.2 90-18 10.9-61.8 6.4-92.9-38.3-21-37.5-18.3-75.6-3.5-86.8 22-13.4 56 4.7 82.2 35.1m197.9-4.7v.4c0 40.4-36 73.6-79.8 73.6S26 450.2 26 409.8v-.8c0-40.4 36-73.6 79.8-73.6s79.8 33.2 79.8 73.6zm-291.2-174.7c35.7-9.6 12 147.7-17 134.8-32-25.8-42.2-101 17-134.8m412.5-2c-35.7-9.6-12 147.7 17 134.8 31.9-25.7 42.2-101-17-134.8M59.6 199.3c32.8 21.5 38.8 71 13.3 109.7-25.5 38.6-73.6 52.7-106.4 31.2s-38.8-71-13.3-109.7 73.6-52.8 106.4-31.2m89.2-4c-32.8 21.5-38.8 71-13.3 109.7 25.5 38.6 73.6 52.7 106.4 31.2s38.8-71 13.3-109.7c-25.5-38.6-73.5-52.7-106.4-31.2m36.8-79.7c61.6-10.4 112.9 26.2 110.8 93-2.1 25.6-133.5-89.2-110.8-93m-170.2-1.9c-61.6-10.4-112.9 26.2-110.8 93 2 25.6 133.5-89.2 110.8-93m88.5-15.6c-36.8-1-72 27.3-72.1 43.7-.1 19.9 29.1 40.3 72.4 40.8 44.2.3 72.5-16.3 72.6-36.9.1-23.3-40.3-48-72.9-47.6" style="fill:#bc1142" transform="translate(180 72.296)scale(.72973)"/></svg>