<?xml version="1.0" encoding="UTF-8" standalone="no"?>
<!DOCTYPE svg PUBLIC "-//W3C//DTD SVG 1.1//EN" "http://www.w3.org/Graphics/SVG/1.1/DTD/svg11.dtd">
<svg width="100%" height="100%" viewBox="0 0 350 350" version="1.1" xmlns="http://www.w3.org/2000/svg" xmlns:xlink="http://www.w3.org/1999/xlink" xml:space="preserve" xmlns:serif="http://www.serif.com/" style="fill-rule:evenodd;clip-rule:evenodd;stroke-linejoin:round;stroke-miterlimit:2;">
    <g transform="matrix(3.70024,0,0,3.70024,0,2.95)">
        <circle cx="9.124" cy="46.904" r="9.124" style="fill:rgb(255,99,9);"/>
    </g>
    <g transform="matrix(3.70024,0,0,3.70024,0,2.95)">
        <circle cx="74.548" cy="84.667" r="9.124" style="fill:rgb(255,181,21);"/>
    </g>
    <path d="M195.147,92.967C237.185,92.967 272.064,124.182 277.84,164.651L335.682,164.651C333.055,132.851 319.871,103.212 297.829,79.838C283.712,87.028 266.354,87.165 251.609,78.654C236.852,70.132 228.29,55.021 227.469,39.184C216.872,36.716 206.027,35.471 195.147,35.476C174.041,35.476 153.645,40.083 135.096,48.819L164.054,98.976C173.937,94.998 184.493,92.958 195.147,92.966" style="fill:rgb(255,99,9);fill-rule:nonzero;"/>
    <path d="M277.844,188.325C272.082,228.81 237.196,260.043 195.147,260.043C184.489,260.053 173.928,258.011 164.043,254.027L135.081,304.187C153.627,312.927 174.03,317.537 195.143,317.537C206.032,317.539 216.886,316.293 227.491,313.823C228.297,297.967 236.863,282.83 251.631,274.304C266.381,265.786 283.745,265.924 297.866,273.128C319.889,249.749 333.059,220.114 335.678,188.325L277.844,188.325Z" style="fill:rgb(201,0,22);fill-rule:nonzero;"/>
    <path d="M111.61,176.507C111.61,149.891 124.12,126.147 143.566,110.839L114.615,60.689C107.758,65.481 101.334,70.866 95.418,76.782C78.663,93.536 66.648,113.766 60.036,135.845C73.357,144.474 82.179,159.452 82.179,176.507C82.179,193.557 73.357,208.54 60.036,217.165C66.649,239.245 78.663,259.474 95.418,276.228C101.329,282.141 107.748,287.525 114.6,292.317L143.555,242.164C124.113,226.856 111.61,203.112 111.61,176.507" style="fill:rgb(255,181,21);fill-rule:nonzero;"/>
    <g transform="matrix(3.70024,0,0,3.70024,0,2.95)">
        <circle cx="74.54" cy="9.126" r="9.124" style="fill:rgb(201,0,22);"/>
    </g>
</svg>
