<svg xmlns="http://www.w3.org/2000/svg" width="2500" height="2448" fill-rule="evenodd" stroke-linejoin="round" stroke-miterlimit="2" clip-rule="evenodd" viewBox="-6.74 -6.74 223.55 218.799"><path fill="#7547db" d="M111.134 71.906a21 21 0 0 1-1.324.042c-11.314 0-20.5-9.186-20.5-20.5s9.186-20.5 20.5-20.5 20.5 9.186 20.5 20.5a20.4 20.4 0 0 1-4.582 12.913l22.66 41.655a51 51 0 0 1 17.422-3.068c28.148 0 51 22.852 51 51s-22.852 51-51 51a51.2 51.2 0 0 1-28.036-8.373 7.303 7.303 0 0 1-1.359-11.105c.015-.016.031-.033.061-.036a7.665 7.665 0 0 1 9.736-1.228 36.06 36.06 0 0 0 19.598 5.792c19.897 0 36.05-16.153 36.05-36.05s-16.153-36.05-36.05-36.05c-6.89 0-16.669 3.014-22.548 6.745a2.637 2.637 0 0 1-3.899-.845zm-9.412 88.614a51 51 0 0 1-6.054 16.62c-14.074 24.378-45.29 32.743-69.667 18.669S-6.74 150.518 7.333 126.14a51.2 51.2 0 0 1 21.27-20.094 7.3 7.3 0 0 1 6.167-.211 7.3 7.3 0 0 1 4.13 4.587c.006.022.012.043 0 .07a7.665 7.665 0 0 1-3.804 9.047 36.05 36.05 0 0 0-14.816 14.076c-9.948 17.23-4.036 39.297 13.195 49.246 17.231 9.948 39.298 4.035 49.246-13.196 3.445-5.967 5.724-15.943 5.433-22.9a2.632 2.632 0 0 1 2.681-2.953l59.054 1.499q.292-.59.626-1.168c5.657-9.798 18.205-13.161 28.003-7.504 9.8 5.658 13.161 18.206 7.504 28.004s-18.205 13.16-28.004 7.503a20.4 20.4 0 0 1-8.892-10.424zM76.97 90.555A51 51 0 0 1 65.601 77c-14.074-24.377-5.71-55.594 18.667-69.667S139.862 1.624 153.935 26a51.2 51.2 0 0 1 6.768 28.466 7.306 7.306 0 0 1-8.938 6.73c-.022-.005-.044-.011-.062-.035a7.664 7.664 0 0 1-5.932-7.817 36.04 36.04 0 0 0-4.783-19.87c-9.948-17.23-32.014-23.143-49.245-13.195S68.599 52.294 78.548 69.525c3.445 5.967 10.945 12.929 17.115 16.155a2.635 2.635 0 0 1 1.218 3.799l-30.826 50.393q.366.548.7 1.125c5.656 9.799 2.294 22.347-7.505 28.004s-22.346 2.295-28.003-7.504-2.295-22.346 7.503-28.003a20.4 20.4 0 0 1 13.474-2.488z"/></svg>